<svg width="149" height="149" viewBox="0 0 149 149" fill="none" xmlns="http://www.w3.org/2000/svg">
<g clip-path="url(#clip0_2_37)">
<path opacity="0.948" fill-rule="evenodd" clip-rule="evenodd" d="M12.3682 -0.145508C45.7381 -0.145508 79.1077 -0.145508 112.478 -0.145508C112.76 0.0900478 113.002 0.381065 113.205 0.727539C113.351 4.31541 113.399 7.90462 113.351 11.4951C117.163 11.3607 120.946 11.5062 124.7 11.9316C125.05 12.1943 125.292 12.5338 125.428 12.9502C125.573 16.344 125.622 19.7392 125.573 23.1357C128.97 23.0873 132.365 23.1358 135.759 23.2812C136.389 23.5238 136.826 23.9603 137.068 24.5908C137.262 65.7209 137.262 106.851 137.068 147.981C136.764 148.236 136.522 148.527 136.341 148.854C102.971 148.854 69.6013 148.854 36.2315 148.854C35.9495 148.619 35.707 148.328 35.5039 147.981C35.3584 144.394 35.3098 140.804 35.3584 137.214C31.5464 137.348 27.7631 137.203 24.0088 136.777C23.6592 136.515 23.4166 136.175 23.2813 135.759C23.1358 132.365 23.0873 128.97 23.1357 125.573C19.7392 125.622 16.344 125.573 12.9502 125.428C12.3197 125.185 11.8831 124.749 11.6406 124.118C11.4466 83.085 11.4466 42.0518 11.6406 1.01855C11.8333 0.586711 12.0758 0.198691 12.3682 -0.145508ZM15.8604 4.21973C46.9021 4.21973 77.9436 4.21973 108.985 4.21973C108.985 43.2158 108.985 82.2119 108.985 121.208C77.9436 121.208 46.9021 121.208 15.8604 121.208C15.8604 82.2119 15.8604 43.2158 15.8604 4.21973ZM113.351 15.8604C115.97 15.8604 118.589 15.8604 121.208 15.8604C121.208 54.8564 121.208 93.8525 121.208 132.849C89.9724 132.849 58.7366 132.849 27.501 132.849C27.501 130.424 27.501 127.998 27.501 125.573C55.7298 125.622 83.9583 125.573 112.187 125.428C112.453 125.319 112.696 125.173 112.914 124.991C113.349 88.6378 113.495 52.2609 113.351 15.8604ZM125.573 27.501C127.998 27.501 130.424 27.501 132.849 27.501C132.849 66.4971 132.849 105.493 132.849 144.489C101.807 144.489 70.7654 144.489 39.7236 144.489C39.7236 142.064 39.7236 139.639 39.7236 137.214C67.8552 137.262 95.9869 137.214 124.118 137.068C124.535 136.933 124.874 136.69 125.137 136.341C125.572 100.084 125.718 63.8046 125.573 27.501Z" fill="white"/>
<path opacity="0.932" fill-rule="evenodd" clip-rule="evenodd" d="M65.333 26.3369C69.1392 26.07 72.8255 26.6035 76.3916 27.9375C77.542 28.9077 77.7361 30.0232 76.9736 31.2842C76.4713 31.7294 75.8893 32.0204 75.2275 32.1572C66.6487 29.2148 59.4219 31.1547 53.5469 37.9775C52.7096 39.1177 51.9821 40.3304 51.3643 41.6152C58.4455 41.7121 65.5271 41.8093 72.6084 41.9062C74.1185 42.754 74.4581 43.9666 73.627 45.5439C73.4087 45.7261 73.166 45.8716 72.8994 45.9805C65.3336 46.126 57.7672 46.1746 50.2002 46.126C49.86 48.1581 49.86 50.1952 50.2002 52.2373C56.9913 52.1887 63.7816 52.2373 70.5713 52.3828C71.6259 53.0117 71.9655 53.9333 71.5898 55.1474C71.3474 55.7781 70.9109 56.2146 70.2803 56.457C64.1666 56.5056 58.0553 56.6511 51.9463 56.8935C55.4201 63.0235 60.707 66.3219 67.8066 66.7881C70.3068 66.6722 72.7318 66.1871 75.082 65.333C76.5429 65.3388 77.3674 66.0664 77.5557 67.5156C77.4224 68.3395 77.0342 69.0184 76.3916 69.5527C65.9898 73.0359 57.2111 70.6592 50.0547 62.4228C48.8842 60.6642 47.8657 58.8209 46.999 56.8935C44.8414 56.7282 42.7074 56.4858 40.5967 56.166C39.5746 55.0788 39.4777 53.9147 40.3057 52.6738C42.1143 52.2617 43.9573 52.1162 45.835 52.2373C45.5771 50.2127 45.4799 48.1756 45.5439 46.126C43.8767 46.2098 42.2275 46.1126 40.5967 45.8349C39.3232 44.3092 39.517 42.9996 41.1787 41.9062C43.0293 41.8571 44.8726 41.7115 46.708 41.4697C50.0564 32.881 56.265 27.8367 65.333 26.3369Z" fill="white"/>
<path opacity="0.936" fill-rule="evenodd" clip-rule="evenodd" d="M24.2998 85.7041C34.0008 85.6555 43.7012 85.7041 53.4014 85.8496C54.9685 87.337 54.8716 88.6949 53.1104 89.9238C43.7009 90.1179 34.2912 90.1179 24.8818 89.9238C22.8713 88.7473 22.6773 87.3408 24.2998 85.7041Z" fill="white"/>
<path opacity="0.942" fill-rule="evenodd" clip-rule="evenodd" d="M24.5908 97.3447C49.9095 97.2961 75.2278 97.3447 100.546 97.4902C101.38 97.8956 101.768 98.5746 101.71 99.5274C101.768 100.48 101.38 101.159 100.546 101.564C75.2275 101.759 49.9092 101.759 24.5908 101.564C23.6942 101.183 23.2092 100.504 23.1357 99.5274C23.2282 98.5175 23.7132 97.79 24.5908 97.3447Z" fill="white"/>
<path opacity="0.943" fill-rule="evenodd" clip-rule="evenodd" d="M24.8818 108.985C50.0064 108.937 75.1306 108.985 100.255 109.131C101.965 110.238 102.159 111.596 100.837 113.205C75.3245 113.399 49.8123 113.399 24.2998 113.205C22.7794 111.595 22.9734 110.189 24.8818 108.985Z" fill="white"/>
</g>
<defs>
<clipPath id="clip0_2_37">
<rect width="149" height="149" fill="white"/>
</clipPath>
</defs>
</svg>
