<svg width="35" height="35" viewBox="0 0 35 35" fill="none" xmlns="http://www.w3.org/2000/svg">
<path d="M24.5137 0.205078C22.9824 1.17578 21.916 1.30566 19.0244 0.861328C18.1562 0.724609 17.2061 0.615234 16.9189 0.615234C15.8936 0.615234 14.9707 0.963867 14.4238 1.56543C14.2188 1.78418 14.123 1.83887 13.8086 1.87988C12.5234 2.05078 11.5732 2.69336 11.0674 3.72559C10.6504 4.58008 10.5752 5.05176 10.541 6.95215C10.5205 8.56543 10.5068 8.68164 10.3906 8.68164C10.3223 8.68164 10.0693 8.74316 9.83008 8.81836C9.24219 8.99609 8.83203 9.3584 8.5791 9.91895C8.41504 10.2949 8.39453 10.3975 8.42188 10.8965C8.45605 11.5869 8.6748 12.0996 9.12598 12.5439C9.49512 12.9199 10.1582 13.248 10.6504 13.3096L10.999 13.3506L11.252 13.8359C11.3818 14.1025 11.6621 14.5537 11.874 14.8477C12.2227 15.3262 13.2412 16.3857 13.6924 16.7275L13.8838 16.8711L13.8633 17.8486L13.8428 18.833L11.1426 19.4619C9.5498 19.8311 8.30566 20.1592 8.10059 20.2549C7.02734 20.7744 5.89258 22.2852 5.3252 23.9326L5.16797 24.3906L4.67578 24.418C3.78711 24.4795 3.13086 24.9307 2.74121 25.7646L2.56348 26.1475V29.7021V33.2568L2.78906 33.7148C3.03516 34.2139 3.38379 34.5625 3.88965 34.8086L4.2041 34.9658H17.5H30.7959L31.1855 34.7744C31.6504 34.5488 32.0127 34.1592 32.2588 33.6396L32.4365 33.2568V29.7021V26.1475L32.2588 25.7646C31.8691 24.9375 31.2061 24.4795 30.3174 24.418L29.8184 24.3838L29.6748 23.9395C29.1416 22.333 27.9727 20.7812 26.8926 20.2549C26.6875 20.1455 25.4912 19.8379 23.8506 19.4551L21.1572 18.8262L21.1367 17.8486L21.1162 16.8711L21.3076 16.7275C21.7588 16.3857 22.7773 15.3262 23.126 14.8477C23.3379 14.5537 23.6182 14.1025 23.748 13.8359L24.001 13.3506L24.3496 13.3096C25.1631 13.2139 26.0312 12.585 26.3662 11.8467C26.5713 11.3955 26.6465 10.6504 26.5303 10.2197C26.4209 9.80273 26.0859 9.32422 25.7373 9.07812L25.4365 8.86621L25.7031 8.57227C26.2979 7.92969 26.9062 6.71289 26.8311 6.34375C26.7832 6.125 26.5645 5.94727 26.3457 5.94727C26.1064 5.94727 25.915 6.15918 25.71 6.6377C25.3477 7.50586 24.6914 8.29199 24.1035 8.57227C23.8916 8.6748 23.7617 8.6748 22.5791 8.5791C18.8193 8.27832 16.6865 7.71094 14.8203 6.52148C14.2871 6.17969 14.1641 6.22754 13.7061 6.95898C13.1113 7.92285 12.5098 8.45605 11.833 8.60645L11.5391 8.66797L11.5732 6.98633C11.6074 5.18848 11.6621 4.83301 11.9971 4.17676C12.1885 3.79395 12.5918 3.38379 12.9336 3.20605C13.2686 3.03516 13.9043 2.87109 14.2393 2.87109C14.5537 2.87109 14.7451 2.77539 14.9365 2.53613C15.668 1.58594 16.3242 1.4834 18.9355 1.87988C20.4736 2.1123 20.6855 2.13281 21.6699 2.09863C22.8799 2.06445 23.3857 1.94824 24.3359 1.49023L24.9102 1.20996L25.1426 1.47656C25.6074 2.00977 26.0244 3.06934 26.1475 4.05371C26.1953 4.42969 26.3867 4.64844 26.6738 4.64844C26.8857 4.64844 27.1318 4.44336 27.1455 4.25195C27.2139 2.98047 26.4346 1.15527 25.4297 0.246094C25.0947 -0.0546875 24.9375 -0.0615234 24.5137 0.205078ZM15.2715 7.96387C16.9395 8.81152 19.3525 9.36523 22.2988 9.58398L23.4473 9.66602V10.6641C23.4473 11.8535 23.3516 12.3047 22.9346 13.166C22.2031 14.6699 20.9043 15.9619 19.3936 16.6797C18.6758 17.0283 18.1426 17.1582 17.5 17.1582C16.8574 17.1582 16.3242 17.0283 15.6064 16.6797C14.0957 15.9619 12.7627 14.6426 12.0586 13.1592C11.6348 12.2705 11.5459 11.8125 11.5664 10.6504L11.5869 9.67969L11.8945 9.625C12.8447 9.46777 13.8428 8.73633 14.4033 7.78613C14.4717 7.67676 14.5264 7.58789 14.5264 7.58789C14.5332 7.58789 14.8682 7.75879 15.2715 7.96387ZM10.5273 10.7119C10.5273 11.2725 10.5479 11.8398 10.5684 11.9766C10.623 12.3047 10.5273 12.3115 10.1035 12.0312C9.46777 11.6143 9.22852 10.7188 9.60449 10.165C9.7002 10.0283 9.78906 9.91211 9.7959 9.91211C9.80273 9.91211 9.93262 9.86426 10.083 9.80957C10.5479 9.64551 10.5273 9.60449 10.5273 10.7119ZM25.1016 9.88477C25.8057 10.2471 25.6895 11.5049 24.8965 12.0312C24.4727 12.3115 24.377 12.3047 24.4316 11.9766C24.4521 11.8398 24.4727 11.2656 24.4727 10.7119V9.69336L24.6982 9.74121C24.8145 9.76855 24.999 9.83691 25.1016 9.88477ZM16.29 18.0264C17.3701 18.334 18.7441 18.1836 19.8447 17.6299L20.0977 17.5V18.2314V18.9697L18.833 19.8926C18.1357 20.3984 17.541 20.8154 17.5 20.8154C17.4658 20.8154 16.8643 20.3984 16.167 19.8926L14.9023 18.9697V18.2383V17.5068L15.292 17.6777C15.5039 17.7734 15.9482 17.9307 16.29 18.0264ZM15.5996 20.7539L16.543 21.4443L15.6406 21.9229L14.7451 22.4082L14.5947 22.2236C14.5127 22.1279 14.1025 21.6084 13.6855 21.0752C12.9814 20.1797 12.9336 20.0977 13.0703 20.0635C13.1592 20.043 13.46 19.9678 13.7402 19.8994C14.3418 19.7627 14.123 19.6602 15.5996 20.7539ZM22.0391 20.1045C22.0527 20.1182 21.6562 20.6445 21.1641 21.2666L20.2686 22.4082L19.5508 22.0254C19.1543 21.8135 18.751 21.5947 18.6553 21.54L18.4775 21.4307L19.5986 20.6035L20.7266 19.7764L21.3691 19.9336C21.7314 20.0156 22.0322 20.0977 22.0391 20.1045ZM13.0361 21.9092C13.6855 22.7363 14.2734 23.4541 14.335 23.4951C14.3965 23.543 14.5127 23.584 14.5879 23.584C14.6631 23.584 15.3467 23.249 16.1123 22.832L17.5 22.0869L18.8945 22.832C20.2686 23.5703 20.3916 23.625 20.6035 23.543C20.665 23.5225 21.2529 22.8115 21.9092 21.9707C22.5723 21.1299 23.1396 20.4258 23.1738 20.4053C23.2764 20.3438 26.168 21.041 26.5098 21.2188C26.9199 21.4238 27.4668 21.9775 27.8633 22.5654C28.1777 23.0439 28.5947 23.8848 28.6768 24.2197L28.7246 24.4043H23.6455H18.5664L18.4092 24.5547C18.1836 24.7598 18.1973 25.1016 18.4297 25.2861C18.6143 25.4297 18.6484 25.4297 24.5342 25.4297C30.1602 25.4297 30.4678 25.4365 30.7344 25.5596C31.0557 25.7031 31.2607 25.9629 31.3701 26.3525C31.4727 26.7285 31.4727 32.6758 31.3701 33.0518C31.2607 33.4482 31.0146 33.7422 30.6797 33.8652C30.4131 33.9678 29.2031 33.9746 17.3906 33.9609L4.40234 33.9404L4.12207 33.7559C3.5752 33.3936 3.58887 33.4893 3.58887 29.6611V26.2773L3.77344 25.9971C3.88281 25.833 4.07422 25.6621 4.25195 25.5732C4.55273 25.4297 4.58008 25.4297 10.5547 25.4297H16.5498L16.7139 25.2588C16.9326 25.0469 16.9326 24.7871 16.7139 24.5752L16.5498 24.4043H11.4092H6.27539L6.32324 24.2197C6.40527 23.8848 6.82227 23.0439 7.13672 22.5654C7.5332 21.9775 8.08008 21.4238 8.49023 21.2188C8.80469 21.0615 11.5527 20.3643 11.7578 20.3916C11.8125 20.3984 12.3867 21.082 13.0361 21.9092Z" fill="white"/>
<path d="M14.3828 10.6025C14.2803 10.7188 14.2529 10.8486 14.2529 11.2588C14.2529 11.7168 14.2734 11.7852 14.417 11.9014C14.6221 12.0723 14.9365 12.0654 15.1074 11.8945C15.2168 11.7852 15.2441 11.6689 15.2441 11.2451C15.2441 10.8213 15.2168 10.7051 15.1074 10.5957C14.9229 10.4111 14.5537 10.418 14.3828 10.6025Z" fill="white"/>
<path d="M19.8926 10.5957C19.7832 10.7051 19.7559 10.8213 19.7559 11.2451C19.7559 11.6689 19.7832 11.7852 19.8926 11.8945C20.0635 12.0654 20.3779 12.0723 20.583 11.9014C20.7266 11.7852 20.7471 11.7168 20.7471 11.2588C20.7471 10.8486 20.7197 10.7188 20.6172 10.6025C20.4463 10.418 20.0771 10.4111 19.8926 10.5957Z" fill="white"/>
<path d="M16.3788 14.1572C16.1601 14.3281 16.1327 14.6973 16.331 14.8955C16.5019 15.0664 17.0966 15.2441 17.4999 15.2441C17.9101 15.2441 18.498 15.0664 18.6689 14.8955C18.8671 14.6973 18.8193 14.3076 18.5732 14.1299C18.3954 13.9932 18.3818 13.9932 18.0605 14.1025C17.664 14.2461 17.3017 14.2529 16.9736 14.1162C16.6591 13.9795 16.5976 13.9863 16.3788 14.1572Z" fill="white"/>
<path d="M21.5674 27.3779L21.3965 27.542V29.7021V31.8623L21.5674 32.0264C21.7656 32.2314 22.0049 32.2451 22.2236 32.0674C22.3809 31.9375 22.3877 31.8965 22.4219 30.666L22.4561 29.4014L23.3105 30.6387C23.7822 31.3223 24.2266 31.9375 24.2949 32.0059C24.4727 32.1631 24.8213 32.1631 25.0264 31.999L25.1904 31.8691L25.2109 29.709L25.2314 27.5488L25.0605 27.3779C24.8555 27.1729 24.6162 27.1592 24.3975 27.3369C24.2402 27.4668 24.2334 27.501 24.1992 28.7725L24.165 30.0713L23.2422 28.7383C22.7363 28 22.2578 27.3574 22.1826 27.3027C21.9844 27.1592 21.752 27.1865 21.5674 27.3779Z" fill="white"/>
<path d="M27.2412 27.3232C26.9951 27.3848 26.8652 27.5557 26.8652 27.8223C26.8652 28.1641 27.0225 28.2871 27.4805 28.3144L27.8564 28.335L27.877 30.0439C27.8906 31.6777 27.8975 31.7529 28.041 31.9033C28.3008 32.1836 28.7109 32.0811 28.8408 31.7119C28.8887 31.5752 28.916 30.8848 28.916 29.9004V28.3008H29.2852C29.6064 28.3008 29.6748 28.2734 29.7979 28.123C29.9824 27.8838 29.9756 27.7334 29.7773 27.501L29.6133 27.3096L28.4922 27.2959C27.8838 27.2891 27.3164 27.3027 27.2412 27.3232Z" fill="white"/>
<path d="M6.76752 27.4053C5.89935 27.6855 5.20209 28.5332 5.09271 29.4287C5.03119 29.8867 5.19525 30.543 5.47552 30.9805C6.20697 32.1152 7.83392 32.4023 8.78412 31.5684C8.94818 31.4248 9.10541 31.2402 9.12591 31.165C9.19427 30.9668 9.04388 30.6592 8.8388 30.5635C8.62005 30.4678 8.43548 30.5225 8.15521 30.7686C7.88177 31.0078 7.51263 31.083 7.12298 30.9736C6.50091 30.8096 6.12494 30.3174 6.1181 29.668C6.1181 29.2236 6.26849 28.9297 6.6513 28.6221C6.99994 28.335 7.63568 28.2803 8.08685 28.499C8.46966 28.6836 8.6474 28.6836 8.85248 28.4717C9.16009 28.1709 9.03705 27.8359 8.53119 27.5762C8.23041 27.4189 8.06634 27.3848 7.55365 27.3643C7.21869 27.3574 6.86322 27.3711 6.76752 27.4053Z" fill="white"/>
<path d="M10.8965 27.3984C10.6846 27.5352 10.6641 27.7744 10.6641 29.7363V31.7256L10.835 31.8896C10.9922 32.0537 11.04 32.0605 11.8262 32.0605C12.6123 32.0605 12.6602 32.0537 12.8174 31.8896C13.0498 31.6641 13.043 31.3633 12.8105 31.1787C12.667 31.0625 12.5303 31.0352 12.1611 31.0352H11.6895V29.3262C11.6895 27.7061 11.6826 27.6104 11.5527 27.4805C11.416 27.3437 11.0469 27.2959 10.8965 27.3984Z" fill="white"/>
<path d="M14.6904 27.4736L14.5264 27.6035V29.7022V31.8008L14.6904 31.9307C14.8955 32.1016 15.21 32.0947 15.3809 31.9238C15.5107 31.7939 15.5176 31.6982 15.5176 29.7022C15.5176 27.7061 15.5107 27.6104 15.3809 27.4805C15.21 27.3096 14.8955 27.3027 14.6904 27.4736Z" fill="white"/>
<path d="M17.3428 27.4258C17.124 27.5967 17.0898 27.8838 17.0898 29.6953C17.0898 31.5479 17.1309 31.8691 17.3633 31.9922C17.4316 32.0332 17.9033 32.0605 18.4092 32.0605C19.2363 32.0605 19.3457 32.0469 19.5098 31.917C19.6396 31.8145 19.6875 31.7119 19.6875 31.5479C19.6875 31.1582 19.4482 31.0352 18.7236 31.0352H18.1152V30.625V30.2148H18.6826C19.2842 30.208 19.4346 30.1533 19.5439 29.8662C19.6191 29.6611 19.4893 29.2988 19.3115 29.2305C19.25 29.21 18.9561 29.1895 18.6553 29.1895H18.1152V28.7793V28.3691H18.7236C19.4482 28.3691 19.6875 28.2461 19.6875 27.8564C19.6875 27.6924 19.6396 27.5898 19.5098 27.4873C19.3457 27.3574 19.2363 27.3438 18.3955 27.3438C17.7529 27.3438 17.4248 27.3711 17.3428 27.4258Z" fill="white"/>
</svg>
