<svg width="48" height="48" viewBox="0 0 48 48" fill="none" xmlns="http://www.w3.org/2000/svg">
<path opacity="0.924" fill-rule="evenodd" clip-rule="evenodd" d="M11.8594 5.29687C11.5972 5.606 11.316 5.90288 11.0156 6.1875C10.405 6.20363 9.81121 6.25051 9.23437 6.32812C7.63409 6.28526 6.04034 6.33213 4.45312 6.46875C3.6278 6.92473 3.31531 7.62785 3.51562 8.57812C3.17522 8.87149 2.8471 9.18399 2.53125 9.51562C2.51515 10.1574 2.46827 10.7825 2.39062 11.3906C2.375 10.0777 2.39063 8.76525 2.4375 7.45312C2.68212 6.38356 3.32275 5.68043 4.35937 5.34375C6.85918 5.29687 9.35918 5.28125 11.8594 5.29687Z" fill="#011638"/>
<path opacity="0.958" fill-rule="evenodd" clip-rule="evenodd" d="M11.8594 5.29688C13.8281 5.29688 15.7969 5.29688 17.7656 5.29688C17.4532 5.64063 17.1406 5.98437 16.8281 6.32812C14.2969 6.32812 11.7656 6.32812 9.23438 6.32812C9.81122 6.25051 10.405 6.20363 11.0156 6.1875C11.316 5.90288 11.5972 5.60601 11.8594 5.29688Z" fill="#011638"/>
<path opacity="0.938" fill-rule="evenodd" clip-rule="evenodd" d="M17.7656 5.29688C19.9531 5.29688 22.1407 5.29688 24.3281 5.29688C24.0157 5.64063 23.7031 5.98437 23.3906 6.32812C21.2032 6.32812 19.0156 6.32812 16.8281 6.32812C17.1406 5.98437 17.4532 5.64063 17.7656 5.29688Z" fill="#011638"/>
<path opacity="0.958" fill-rule="evenodd" clip-rule="evenodd" d="M24.3281 5.29688C25.8281 5.29688 27.3281 5.29688 28.8281 5.29688C28.5157 5.64063 28.2031 5.98437 27.8906 6.32812C26.3906 6.32812 24.8906 6.32812 23.3906 6.32812C23.7031 5.98437 24.0157 5.64063 24.3281 5.29688Z" fill="#011638"/>
<path opacity="0.934" fill-rule="evenodd" clip-rule="evenodd" d="M28.8281 5.29688C30.9532 5.29688 33.0781 5.29688 35.2031 5.29688C34.8907 5.64063 34.5781 5.98437 34.2656 6.32812C32.1406 6.32812 30.0157 6.32812 27.8906 6.32812C28.2031 5.98437 28.5157 5.64063 28.8281 5.29688Z" fill="#011638"/>
<path opacity="0.964" fill-rule="evenodd" clip-rule="evenodd" d="M35.2031 5.29688C36.8594 5.29688 38.5156 5.29688 40.1719 5.29688C39.9097 5.60601 39.6285 5.90288 39.3281 6.1875C38.9977 6.20425 38.6851 6.25113 38.3906 6.32812C37.0156 6.32812 35.6407 6.32812 34.2656 6.32812C34.5781 5.98437 34.8907 5.64063 35.2031 5.29688Z" fill="#011638"/>
<path opacity="0.954" fill-rule="evenodd" clip-rule="evenodd" d="M40.1719 5.29687C41.3286 5.28126 42.4848 5.29688 43.6406 5.34374C44.0976 5.46203 44.4726 5.6964 44.7656 6.04687C44.4785 6.19229 44.2285 6.39542 44.0156 6.65624C44.0861 6.71913 44.1174 6.79725 44.1094 6.89062C43.8897 6.62534 43.6085 6.45347 43.2656 6.37499C41.6409 6.32813 40.016 6.3125 38.3906 6.32812C38.6851 6.25112 38.9977 6.20425 39.3281 6.18749C39.6285 5.90288 39.9097 5.606 40.1719 5.29687Z" fill="#011638"/>
<path opacity="0.951" fill-rule="evenodd" clip-rule="evenodd" d="M44.7656 6.04688C45.1425 6.36216 45.3769 6.7684 45.4688 7.26562C45.5156 8.45272 45.5313 9.64022 45.5156 10.8281C45.1718 11.1406 44.8282 11.4532 44.4844 11.7656C44.5 10.3903 44.4844 9.01527 44.4375 7.64062C44.403 7.35327 44.2936 7.10327 44.1094 6.89062C44.1174 6.79726 44.0861 6.71914 44.0156 6.65625C44.2285 6.39543 44.4785 6.1923 44.7656 6.04688Z" fill="#011638"/>
<path opacity="0.94" fill-rule="evenodd" clip-rule="evenodd" d="M34.2656 7.17188C35.5297 7.20167 36.2485 7.8423 36.4219 9.09375C36.0876 10.7453 35.1189 11.3078 33.5156 10.7812C32.3088 9.72872 32.2775 8.63499 33.4219 7.5C33.6993 7.3496 33.9805 7.24023 34.2656 7.17188ZM34.2656 8.29688C34.9673 8.29529 35.2955 8.63904 35.25 9.32812C35.0547 9.83475 34.6954 10.0066 34.1719 9.84375C33.7435 9.60553 33.6029 9.24612 33.75 8.76562C33.8818 8.55528 34.0536 8.39903 34.2656 8.29688Z" fill="#011638"/>
<path opacity="0.959" fill-rule="evenodd" clip-rule="evenodd" d="M28.3595 7.17188C29.8398 7.26127 30.5429 8.04251 30.4688 9.51562C29.9004 10.9322 28.9161 11.3228 27.5157 10.6875C26.6364 9.93563 26.4646 9.045 27.0001 8.01562C27.3765 7.58873 27.8296 7.30748 28.3595 7.17188ZM28.3595 8.29688C29.1437 8.28377 29.4718 8.65877 29.3438 9.42188C29.1056 9.85022 28.7462 9.99084 28.2657 9.84375C27.6294 9.29817 27.6607 8.78255 28.3595 8.29688Z" fill="#011638"/>
<path opacity="0.961" fill-rule="evenodd" clip-rule="evenodd" d="M40.1718 7.17188C41.7362 7.29949 42.4082 8.14324 42.1875 9.70312C41.6747 10.8422 40.8152 11.2328 39.6093 10.875C38.5817 10.2929 38.2535 9.43359 38.625 8.29688C38.9729 7.6823 39.4885 7.3073 40.1718 7.17188ZM40.0781 8.29688C40.8266 8.24864 41.1859 8.59239 41.1562 9.32812C40.7398 10.0036 40.2398 10.0661 39.6562 9.51562C39.4876 9.00618 39.6282 8.59993 40.0781 8.29688Z" fill="#011638"/>
<path opacity="0.92" fill-rule="evenodd" clip-rule="evenodd" d="M3.51562 8.57812C3.51562 9.67191 3.51562 10.7656 3.51562 11.8594C4.67187 11.8594 5.82813 11.8594 6.98438 11.8594C7.18416 11.9357 7.40291 11.9826 7.64062 12C7.35938 12.2812 7.07812 12.5625 6.79688 12.8438C6.49738 12.8607 6.21613 12.9076 5.95312 12.9844C5.14062 12.9844 4.32813 12.9844 3.51562 12.9844C3.51562 13.7969 3.51562 14.6093 3.51562 15.4219C3.4388 15.6848 3.39192 15.9661 3.375 16.2656C3.05915 16.5972 2.73102 16.9098 2.39062 17.2031C2.39062 15.2656 2.39062 13.3282 2.39062 11.3906C2.46828 10.7825 2.51515 10.1574 2.53125 9.51562C2.8471 9.18399 3.17523 8.8715 3.51562 8.57812Z" fill="#011638"/>
<path opacity="0.809" fill-rule="evenodd" clip-rule="evenodd" d="M6.98438 11.8594C9.01563 11.8594 11.0468 11.8594 13.0781 11.8594C12.6131 12.0875 12.2069 12.4156 11.8594 12.8438C11.9453 12.8698 12.0077 12.9167 12.0469 12.9844C10.0156 12.9844 7.98438 12.9844 5.95312 12.9844C6.21613 12.9076 6.49738 12.8607 6.79688 12.8438C7.07812 12.5625 7.35938 12.2812 7.64062 12C7.40291 11.9826 7.18416 11.9357 6.98438 11.8594Z" fill="#011638"/>
<path opacity="0.872" fill-rule="evenodd" clip-rule="evenodd" d="M13.0781 11.8594C15.1718 11.8594 17.2657 11.8594 19.3594 11.8594C18.8138 11.937 18.2513 11.9839 17.6719 12C17.3906 12.2812 17.1094 12.5625 16.8281 12.8438C17.3453 12.86 17.8452 12.9068 18.3281 12.9844C16.2344 12.9844 14.1406 12.9844 12.0469 12.9844C12.0077 12.9167 11.9453 12.8698 11.8594 12.8438C12.2069 12.4156 12.6131 12.0875 13.0781 11.8594Z" fill="#011638"/>
<path opacity="0.968" fill-rule="evenodd" clip-rule="evenodd" d="M19.3594 11.8594C19.7032 11.8594 20.0468 11.8594 20.3906 11.8594C20.9675 11.937 21.5613 11.9839 22.1719 12C21.8906 12.2812 21.6094 12.5625 21.3281 12.8438C20.6551 12.8598 19.9988 12.9067 19.3594 12.9844C19.0156 12.9844 18.6719 12.9844 18.3281 12.9844C17.8452 12.9068 17.3453 12.86 16.8281 12.8438C17.1094 12.5625 17.3906 12.2812 17.6719 12C18.2513 11.9839 18.8138 11.937 19.3594 11.8594Z" fill="#011638"/>
<path opacity="0.849" fill-rule="evenodd" clip-rule="evenodd" d="M20.3906 11.8594C23.3906 11.8594 26.3906 11.8594 29.3906 11.8594C29.1277 11.9362 28.8464 11.983 28.5469 12C28.2656 12.2812 27.9844 12.5625 27.7031 12.8438C27.9409 12.8612 28.1596 12.9081 28.3594 12.9844C25.3594 12.9844 22.3594 12.9844 19.3594 12.9844C19.9988 12.9067 20.6551 12.8598 21.3281 12.8438C21.6094 12.5625 21.8906 12.2812 22.1719 12C21.5613 11.9839 20.9675 11.937 20.3906 11.8594Z" fill="#011638"/>
<path opacity="0.932" fill-rule="evenodd" clip-rule="evenodd" d="M29.3906 11.8594C30.2344 11.8594 31.0781 11.8594 31.9219 11.8594C32.4361 11.9369 32.9674 11.9838 33.5156 12C33.2344 12.2812 32.9531 12.5625 32.6719 12.8438C32.0613 12.8599 31.4675 12.9067 30.8906 12.9844C30.0469 12.9844 29.2031 12.9844 28.3594 12.9844C28.1596 12.9081 27.9409 12.8612 27.7031 12.8438C27.9844 12.5625 28.2656 12.2812 28.5469 12C28.8464 11.983 29.1277 11.9362 29.3906 11.8594Z" fill="#011638"/>
<path opacity="0.826" fill-rule="evenodd" clip-rule="evenodd" d="M31.9219 11.8594C34.2031 11.8594 36.4844 11.8594 38.7656 11.8594C38.4218 12.2344 38.0782 12.6094 37.7344 12.9844C35.4532 12.9844 33.1718 12.9844 30.8906 12.9844C31.4675 12.9067 32.0613 12.8599 32.6719 12.8438C32.9531 12.5625 33.2344 12.2812 33.5156 12C32.9674 11.9838 32.4361 11.9369 31.9219 11.8594Z" fill="#011638"/>
<path opacity="0.878" fill-rule="evenodd" clip-rule="evenodd" d="M38.7656 11.8594C40.6406 11.8594 42.5156 11.8594 44.3906 11.8594C44.0468 12.2344 43.7032 12.6094 43.3594 12.9844C41.4844 12.9844 39.6094 12.9844 37.7344 12.9844C38.0782 12.6094 38.4218 12.2344 38.7656 11.8594Z" fill="#011638"/>
<path opacity="0.971" fill-rule="evenodd" clip-rule="evenodd" d="M45.5156 10.8281C45.5156 12.5156 45.5156 14.2031 45.5156 15.8906C45.1718 16.2031 44.8282 16.5157 44.4844 16.8281C44.4844 15.5468 44.4844 14.2657 44.4844 12.9844C44.1094 12.9844 43.7344 12.9844 43.3594 12.9844C43.7032 12.6094 44.0468 12.2344 44.3906 11.8594C44.4532 11.8594 44.4844 11.8282 44.4844 11.7656C44.8282 11.4532 45.1718 11.1406 45.5156 10.8281Z" fill="#011638"/>
<path opacity="0.892" fill-rule="evenodd" clip-rule="evenodd" d="M3.51562 15.4219C3.51562 16.8281 3.51562 18.2344 3.51562 19.6406C3.17523 19.934 2.8471 20.2465 2.53125 20.5781C2.51512 19.9675 2.46824 19.3737 2.39062 18.7969C2.39062 18.2656 2.39062 17.7344 2.39062 17.2031C2.73102 16.9098 3.05915 16.5972 3.375 16.2656C3.39192 15.9661 3.4388 15.6848 3.51562 15.4219Z" fill="#011638"/>
<path opacity="0.951" fill-rule="evenodd" clip-rule="evenodd" d="M16.7344 17.2969C16.5537 17.6032 16.3349 17.8844 16.0781 18.1406C15.3875 17.5142 14.5749 17.1392 13.6406 17.0156C13.6406 18.2032 13.6406 19.3906 13.6406 20.5781C13.2631 20.8931 12.9193 21.2369 12.6094 21.6094C12.5171 20.0854 12.4858 18.5542 12.5156 17.0156C10.5421 17.3798 9.30768 18.536 8.8125 20.4844C8.59522 21.9097 8.95461 23.1596 9.89062 24.2344C9.67191 24.5156 9.42188 24.7657 9.14062 24.9844C8.15771 23.96 7.65771 22.7257 7.64062 21.2812C7.94579 17.9604 9.75825 16.1635 13.0781 15.8906C14.4825 15.9 15.7013 16.3688 16.7344 17.2969Z" fill="#011638"/>
<path opacity="0.961" fill-rule="evenodd" clip-rule="evenodd" d="M34.7344 15.8906C36.4847 15.875 38.2346 15.8906 39.9844 15.9375C40.0703 15.9726 40.1484 16.0195 40.2188 16.0781C40.3104 16.3752 40.2636 16.6409 40.0781 16.875C37.9846 16.9219 35.8909 16.9375 33.7969 16.9219C34.1093 16.5781 34.4219 16.2344 34.7344 15.8906Z" fill="#011638"/>
<path opacity="0.958" fill-rule="evenodd" clip-rule="evenodd" d="M45.5156 15.8906C45.5156 17.8282 45.5156 19.7656 45.5156 21.7031C45.439 21.4717 45.3922 21.2217 45.375 20.9531C45.125 21.2032 44.875 21.4531 44.625 21.7031C44.6078 21.4345 44.561 21.1846 44.4844 20.9531C44.4844 19.5781 44.4844 18.2032 44.4844 16.8281C44.8282 16.5157 45.1718 16.2031 45.5156 15.8906Z" fill="#011638"/>
<path opacity="0.993" fill-rule="evenodd" clip-rule="evenodd" d="M34.7344 15.8906C34.4219 16.2344 34.1094 16.5781 33.7969 16.9219C31.3904 16.9375 28.9842 16.9219 26.5781 16.875C26.3125 16.5316 26.3438 16.2191 26.6719 15.9375C29.3592 15.8906 32.0467 15.875 34.7344 15.8906Z" fill="#011638"/>
<path opacity="0.963" fill-rule="evenodd" clip-rule="evenodd" d="M16.7344 17.2969C17.4776 18.001 18.0089 18.8448 18.3281 19.8281C18.0803 20.2972 17.7366 20.6096 17.2969 20.7656C16.0405 21.0641 14.7906 21.3922 13.5469 21.75C13.2968 21.8125 13.0469 21.8125 12.7969 21.75C12.711 21.7239 12.6486 21.6771 12.6094 21.6094C12.9193 21.2369 13.2631 20.8931 13.6406 20.5781C14.7584 20.2674 15.8834 19.9862 17.0156 19.7344C16.8593 19.1097 16.5468 18.5784 16.0781 18.1406C16.3349 17.8844 16.5537 17.6032 16.7344 17.2969Z" fill="#011638"/>
<path opacity="0.957" fill-rule="evenodd" clip-rule="evenodd" d="M34.1719 18.5156C33.4837 18.5001 32.7962 18.5156 32.1094 18.5625C31.7778 18.8783 31.4652 19.2065 31.1719 19.5469C30.1406 19.5469 29.1094 19.5469 28.0781 19.5469C28.0781 20.5781 28.0781 21.6094 28.0781 22.6406C27.769 22.9027 27.4721 23.184 27.1875 23.4844C27.1516 23.4322 27.1047 23.401 27.0469 23.3906C27.0312 21.8278 27.0469 20.2653 27.0938 18.7031C27.1406 18.6562 27.1875 18.6094 27.2344 18.5625C28.4133 18.4548 29.6008 18.4079 30.7969 18.4219C31.9379 18.4219 33.0629 18.4531 34.1719 18.5156Z" fill="#011638"/>
<path opacity="0.947" fill-rule="evenodd" clip-rule="evenodd" d="M34.1719 18.5156C34.3141 18.5167 34.4235 18.5791 34.5 18.7031C34.5469 19.7339 34.5625 20.7652 34.5469 21.7969C34.2378 22.059 33.9409 22.3403 33.6562 22.6406C33.6388 22.4029 33.5919 22.1842 33.5156 21.9844C33.5156 21.1718 33.5156 20.3594 33.5156 19.5469C32.7344 19.5469 31.9531 19.5469 31.1719 19.5469C31.4652 19.2065 31.7778 18.8783 32.1094 18.5625C32.7962 18.5156 33.4837 18.5001 34.1719 18.5156Z" fill="#011638"/>
<path opacity="0.984" fill-rule="evenodd" clip-rule="evenodd" d="M35.7655 20.2969C37.1721 20.2812 38.5784 20.2969 39.9843 20.3438C40.3593 20.6875 40.3593 21.0312 39.9843 21.375C38.578 21.4375 37.1718 21.4375 35.7655 21.375C35.2731 21.0162 35.2731 20.6569 35.7655 20.2969Z" fill="#011638"/>
<path opacity="0.942" fill-rule="evenodd" clip-rule="evenodd" d="M44.4844 20.9531C44.561 21.1846 44.6078 21.4345 44.625 21.7031C44.875 21.4531 45.125 21.2032 45.375 20.9531C45.3922 21.2217 45.439 21.4717 45.5156 21.7031C45.5156 23.3594 45.5156 25.0156 45.5156 26.6719C45.4436 26.6003 45.3967 26.5066 45.375 26.3906C45.0904 26.691 44.7935 26.9722 44.4844 27.2344C44.4844 25.1407 44.4844 23.0468 44.4844 20.9531Z" fill="#011638"/>
<path opacity="0.905" fill-rule="evenodd" clip-rule="evenodd" d="M2.39062 18.7969C2.46824 19.3737 2.51512 19.9675 2.53125 20.5781C2.8471 20.2465 3.17523 19.934 3.51562 19.6406C3.51562 21.8281 3.51562 24.0157 3.51562 26.2031C3.17523 26.4965 2.8471 26.809 2.53125 27.1406C2.5141 26.872 2.46723 26.6221 2.39062 26.3906C2.39062 23.8594 2.39062 21.3281 2.39062 18.7969Z" fill="#011638"/>
<path opacity="0.954" fill-rule="evenodd" clip-rule="evenodd" d="M18.3281 19.8281C18.8803 22.5192 18.0053 24.5974 15.7031 26.0625C13.8758 26.8999 12.0634 26.8687 10.2656 25.9688C9.83119 25.7052 9.45619 25.3771 9.14062 24.9844C9.42188 24.7657 9.67191 24.5156 9.89063 24.2344C11.6912 25.8949 13.6287 26.0667 15.7031 24.75C17.0021 23.7095 17.5334 22.3814 17.2969 20.7656C17.7366 20.6096 18.0803 20.2972 18.3281 19.8281Z" fill="#011638"/>
<path opacity="0.954" fill-rule="evenodd" clip-rule="evenodd" d="M28.0781 22.6406C28.0781 23.3594 28.0781 24.0781 28.0781 24.7969C28.4843 24.7969 28.8906 24.7969 29.2968 24.7969C29.9676 24.8746 30.6552 24.9215 31.3593 24.9375C31.0278 25.2533 30.7152 25.5815 30.4218 25.9219C29.3901 25.9375 28.3589 25.9219 27.3281 25.875C27.25 25.7969 27.1718 25.7187 27.0937 25.6406C27.0468 24.8913 27.0313 24.1413 27.0468 23.3906C27.1047 23.401 27.1516 23.4323 27.1875 23.4844C27.4721 23.184 27.769 22.9028 28.0781 22.6406Z" fill="#011638"/>
<path opacity="0.897" fill-rule="evenodd" clip-rule="evenodd" d="M34.5469 21.7969C34.5765 23.114 34.5453 24.4265 34.4531 25.7344C34.4039 25.7992 34.3414 25.8461 34.2656 25.875C32.9847 25.9219 31.7035 25.9375 30.4219 25.9219C30.7152 25.5815 31.0278 25.2533 31.3594 24.9375C30.6552 24.9215 29.9677 24.8746 29.2969 24.7969C30.7031 24.7969 32.1094 24.7969 33.5156 24.7969C33.5156 23.8594 33.5156 22.9219 33.5156 21.9844C33.5919 22.1842 33.6388 22.4029 33.6562 22.6406C33.9409 22.3402 34.2378 22.059 34.5469 21.7969Z" fill="#011638"/>
<path opacity="0.948" fill-rule="evenodd" clip-rule="evenodd" d="M35.6719 24.0469C37.141 24.0312 38.6098 24.0469 40.0782 24.0938C40.3282 24.4062 40.3282 24.7188 40.0782 25.0313C38.6094 25.0938 37.1407 25.0938 35.6719 25.0313C35.303 24.7035 35.303 24.3754 35.6719 24.0469Z" fill="#011638"/>
<path opacity="0.889" fill-rule="evenodd" clip-rule="evenodd" d="M3.51562 26.2031C3.51562 27.0781 3.51562 27.9532 3.51562 28.8281C3.43795 29.4676 3.39108 30.1238 3.375 30.7969C3.05915 31.1285 2.73102 31.441 2.39062 31.7344C2.39062 29.9531 2.39062 28.1719 2.39062 26.3906C2.46723 26.6221 2.5141 26.872 2.53125 27.1406C2.8471 26.809 3.17523 26.4965 3.51562 26.2031Z" fill="#011638"/>
<path opacity="0.956" fill-rule="evenodd" clip-rule="evenodd" d="M45.5156 26.6719C45.5156 28.3594 45.5156 30.0469 45.5156 31.7344C45.1718 32.0468 44.8282 32.3594 44.4844 32.6719C44.4844 30.8594 44.4844 29.0468 44.4844 27.2344C44.7935 26.9722 45.0904 26.691 45.375 26.3906C45.3967 26.5066 45.4436 26.6003 45.5156 26.6719Z" fill="#011638"/>
<path opacity="0.941" fill-rule="evenodd" clip-rule="evenodd" d="M18.3281 30.6094C18.2505 31.2175 18.2036 31.8426 18.1875 32.4844C17.9063 32.7656 17.625 33.0469 17.3438 33.3281C17.3266 33.5967 17.2797 33.8466 17.2031 34.0781C17.2031 32.3594 17.2031 30.6406 17.2031 28.9219C16.5469 28.9219 15.8906 28.9219 15.2344 28.9219C15.2344 31.6094 15.2344 34.2968 15.2344 36.9844C15.157 36.5329 15.1101 36.0641 15.0938 35.5781C14.7779 35.9097 14.4498 36.2223 14.1094 36.5156C14.0937 33.7341 14.1094 30.953 14.1563 28.1719C14.2344 28.0938 14.3125 28.0156 14.3906 27.9375C15.6094 27.875 16.8281 27.875 18.0469 27.9375C18.1775 28.0473 18.2557 28.1879 18.2813 28.3594C18.3281 29.1087 18.3437 29.8587 18.3281 30.6094Z" fill="#011638"/>
<path opacity="0.941" fill-rule="evenodd" clip-rule="evenodd" d="M32.2969 29.0156C31.9531 29.3906 31.6095 29.7656 31.2657 30.1406C29.9216 30.1563 28.5778 30.1406 27.2344 30.0938C26.8321 29.8707 26.7696 29.5738 27.0469 29.2031C27.1683 29.1471 27.2933 29.1002 27.4219 29.0625C29.0466 29.0156 30.6716 29 32.2969 29.0156Z" fill="#011638"/>
<path opacity="0.952" fill-rule="evenodd" clip-rule="evenodd" d="M32.2969 29.0156C34.7971 29 37.297 29.0156 39.7969 29.0625C40.2392 29.1984 40.3798 29.4952 40.2187 29.9531C40.1484 30.0118 40.0702 30.0587 39.9844 30.0938C37.0783 30.1406 34.1721 30.1563 31.2656 30.1406C31.6094 29.7656 31.9531 29.3906 32.2969 29.0156Z" fill="#011638"/>
<path opacity="0.951" fill-rule="evenodd" clip-rule="evenodd" d="M24.7031 31.6406C24.394 31.9027 24.0971 32.184 23.8125 32.4844C23.7951 32.2466 23.7482 32.0279 23.6719 31.8281C23.6719 31.6718 23.6719 31.5156 23.6719 31.3594C23.0156 31.3594 22.3594 31.3594 21.7031 31.3594C21.7031 31.9219 21.7031 32.4844 21.7031 33.0469C21.6255 33.5924 21.5786 34.1549 21.5625 34.7344C21.2467 35.066 20.9185 35.3785 20.5781 35.6719C20.5625 33.9841 20.5781 32.2966 20.625 30.6094C20.6539 30.5336 20.7008 30.4711 20.7656 30.4219C22.0114 30.3142 23.2614 30.2986 24.5156 30.375C24.5625 30.4219 24.6094 30.4687 24.6563 30.5156C24.703 30.8893 24.7187 31.2643 24.7031 31.6406Z" fill="#011638"/>
<path opacity="0.955" fill-rule="evenodd" clip-rule="evenodd" d="M45.5156 31.7344C45.5156 33.4531 45.5156 35.1719 45.5156 36.8906C45.1718 37.2031 44.8282 37.5157 44.4844 37.8281C44.4844 36.1094 44.4844 34.3906 44.4844 32.6719C44.8282 32.3594 45.1718 32.0468 45.5156 31.7344Z" fill="#011638"/>
<path opacity="0.952" fill-rule="evenodd" clip-rule="evenodd" d="M11.7656 30.7969C11.7813 31.7974 11.7656 32.7974 11.7187 33.7969C11.4375 34.0781 11.1562 34.3594 10.875 34.6406C10.8489 34.5547 10.8021 34.4923 10.7344 34.4531C10.7344 33.4219 10.7344 32.3906 10.7344 31.3594C10.0781 31.3594 9.42187 31.3594 8.76562 31.3594C8.76562 32.3281 8.76562 33.2969 8.76562 34.2656C8.68782 35.1242 8.64094 35.9991 8.625 36.8906C8.34375 37.1719 8.0625 37.4531 7.78125 37.7344C7.7641 37.4658 7.71723 37.2158 7.64062 36.9844C7.625 34.8591 7.64062 32.7341 7.6875 30.6094C7.76562 30.5313 7.84375 30.4531 7.92187 30.375C9.14062 30.3125 10.3594 30.3125 11.5781 30.375C11.7222 30.4791 11.7847 30.6197 11.7656 30.7969Z" fill="#011638"/>
<path opacity="0.847" fill-rule="evenodd" clip-rule="evenodd" d="M3.51562 28.8281C3.51562 31.5781 3.51562 34.3282 3.51562 37.0781C3.14062 37.4219 2.76562 37.7656 2.39062 38.1094C2.39062 35.9843 2.39062 33.8594 2.39062 31.7344C2.73102 31.441 3.05915 31.1285 3.375 30.7969C3.39108 30.1238 3.43795 29.4676 3.51562 28.8281Z" fill="#011638"/>
<path opacity="0.955" fill-rule="evenodd" clip-rule="evenodd" d="M18.3281 30.6094C18.3726 33.2716 18.3258 35.9278 18.1875 38.5781C18.1406 38.625 18.0937 38.6719 18.0468 38.7188C16.7926 38.7952 15.5426 38.7795 14.2968 38.6719C14.232 38.6227 14.1851 38.5601 14.1562 38.4844C14.1093 37.8289 14.0938 37.1726 14.1093 36.5156C14.4498 36.2223 14.7779 35.9097 15.0937 35.5781C15.11 36.0641 15.1569 36.5329 15.2343 36.9844C15.2343 37.2344 15.2343 37.4843 15.2343 37.7344C15.8906 37.7344 16.5468 37.7344 17.2031 37.7344C17.2031 36.5156 17.2031 35.2969 17.2031 34.0781C17.2797 33.8467 17.3266 33.5967 17.3437 33.3281C17.625 33.0469 17.9062 32.7656 18.1875 32.4844C18.2036 31.8426 18.2505 31.2175 18.3281 30.6094Z" fill="#011638"/>
<path opacity="0.896" fill-rule="evenodd" clip-rule="evenodd" d="M31.8282 32.7656C32.3424 32.8432 32.8737 32.89 33.4219 32.9063C33.0903 33.2221 32.7778 33.5502 32.4844 33.8906C30.7341 33.9063 28.9842 33.8906 27.2344 33.8438C26.8305 33.6025 26.7679 33.2901 27.0469 32.9063C27.1407 32.875 27.2344 32.8437 27.3282 32.8125C28.8279 32.7656 30.3279 32.75 31.8282 32.7656Z" fill="#011638"/>
<path opacity="0.843" fill-rule="evenodd" clip-rule="evenodd" d="M31.8281 32.7656C34.5158 32.75 37.2033 32.7656 39.8906 32.8125C40.2461 33.005 40.3554 33.3018 40.2188 33.7031C40.1484 33.7618 40.0702 33.8087 39.9844 33.8438C37.4845 33.8906 34.9846 33.9063 32.4844 33.8906C32.7777 33.5502 33.0903 33.2221 33.4219 32.9063C32.8736 32.89 32.3423 32.8432 31.8281 32.7656Z" fill="#011638"/>
<path opacity="0.945" fill-rule="evenodd" clip-rule="evenodd" d="M11.7656 30.7969C11.8281 32.0308 11.8593 33.2809 11.8593 34.5469C11.8727 35.8968 11.8258 37.2405 11.7187 38.5781C11.6718 38.625 11.625 38.6719 11.5781 38.7188C10.3593 38.7813 9.14059 38.7813 7.92184 38.7188C7.81246 38.6719 7.73434 38.5938 7.68747 38.4844C7.64065 37.9853 7.62503 37.4854 7.64059 36.9844C7.71719 37.2158 7.76407 37.4658 7.78122 37.7344C8.06247 37.4531 8.34372 37.1719 8.62497 36.8906C8.64091 35.9992 8.68779 35.1242 8.76559 34.2656C8.76559 35.4218 8.76559 36.5782 8.76559 37.7344C9.42184 37.7344 10.0781 37.7344 10.7343 37.7344C10.7343 36.6406 10.7343 35.5469 10.7343 34.4531C10.802 34.4923 10.8489 34.5547 10.875 34.6406C11.1562 34.3594 11.4375 34.0781 11.7187 33.7969C11.7656 32.7974 11.7812 31.7974 11.7656 30.7969Z" fill="#011638"/>
<path opacity="0.828" fill-rule="evenodd" clip-rule="evenodd" d="M33.8906 36.5156C34.1221 36.5922 34.372 36.6391 34.6406 36.6563C34.309 36.9721 33.9964 37.3002 33.7031 37.6406C31.5467 37.6563 29.3904 37.6406 27.2344 37.5938C26.7344 37.25 26.7344 36.9063 27.2344 36.5625C29.4529 36.5156 31.6716 36.5 33.8906 36.5156Z" fill="#011638"/>
<path opacity="0.902" fill-rule="evenodd" clip-rule="evenodd" d="M33.8906 36.5156C35.8909 36.5 37.8908 36.5156 39.8906 36.5625C40.2657 36.76 40.3595 37.0569 40.1719 37.4531C40.1227 37.518 40.0601 37.5649 39.9844 37.5938C37.8908 37.6406 35.7971 37.6563 33.7031 37.6406C33.9965 37.3002 34.309 36.9721 34.6406 36.6563C34.372 36.6391 34.1221 36.5922 33.8906 36.5156Z" fill="#011638"/>
<path opacity="0.971" fill-rule="evenodd" clip-rule="evenodd" d="M24.7031 31.6406C24.7188 33.9533 24.7031 36.2659 24.6562 38.5781C24.6093 38.625 24.5625 38.6719 24.5156 38.7188C23.2613 38.7952 22.0113 38.7795 20.7656 38.6719C20.7007 38.6227 20.6538 38.5601 20.625 38.4844C20.5781 37.5474 20.5625 36.6099 20.5781 35.6719C20.9185 35.3785 21.2466 35.066 21.5625 34.7344C21.5786 34.1549 21.6255 33.5924 21.7031 33.0469C21.7031 34.6094 21.7031 36.1718 21.7031 37.7344C22.3593 37.7344 23.0156 37.7344 23.6718 37.7344C23.6718 35.7656 23.6718 33.7969 23.6718 31.8281C23.7482 32.0279 23.795 32.2466 23.8125 32.4844C24.0971 32.184 24.394 31.9028 24.7031 31.6406Z" fill="#011638"/>
<path opacity="0.949" fill-rule="evenodd" clip-rule="evenodd" d="M45.5156 36.8906C45.5313 38.2035 45.5156 39.516 45.4688 40.8281C45.1895 41.8816 44.5176 42.5223 43.4531 42.75C42.1722 42.7969 40.891 42.8125 39.6094 42.7969C39.9218 42.4531 40.2344 42.1094 40.5469 41.7656C41.36 41.7812 42.1725 41.7656 42.9844 41.7188C43.7588 41.6318 44.2433 41.21 44.4375 40.4531C44.4844 39.5787 44.4999 38.7037 44.4844 37.8281C44.8282 37.5157 45.1718 37.2031 45.5156 36.8906Z" fill="#011638"/>
<path opacity="0.895" fill-rule="evenodd" clip-rule="evenodd" d="M3.51569 37.0781C3.50007 38.266 3.5157 39.4536 3.56257 40.6406C3.68195 40.931 3.85382 41.181 4.07819 41.3906C3.82137 41.6468 3.60263 41.9281 3.42194 42.2344C2.98965 41.9344 2.69277 41.5282 2.53132 41.0156C2.4029 40.0522 2.35602 39.0833 2.39069 38.1094C2.76569 37.7656 3.14069 37.4219 3.51569 37.0781Z" fill="#011638"/>
<path opacity="0.979" fill-rule="evenodd" clip-rule="evenodd" d="M4.07812 41.3906C4.36051 41.5783 4.67302 41.6877 5.01562 41.7188C6.29649 41.7656 7.57775 41.7813 8.85938 41.7656C8.59729 42.0747 8.31604 42.3716 8.01562 42.6562C8.22261 42.6742 8.41011 42.721 8.57812 42.7969C7.23401 42.8125 5.89027 42.7969 4.54688 42.75C4.10847 42.6935 3.73347 42.5216 3.42188 42.2344C3.60256 41.9281 3.82131 41.6468 4.07812 41.3906Z" fill="#011638"/>
<path opacity="0.967" fill-rule="evenodd" clip-rule="evenodd" d="M8.85938 41.7656C10.7344 41.7656 12.6094 41.7656 14.4844 41.7656C14.2222 42.0747 13.941 42.3716 13.6406 42.6562C13.3411 42.6732 13.0598 42.7201 12.7969 42.7969C11.3906 42.7969 9.98438 42.7969 8.57812 42.7969C8.41011 42.721 8.22261 42.6742 8.01562 42.6562C8.31604 42.3716 8.59729 42.0747 8.85938 41.7656Z" fill="#011638"/>
<path opacity="0.963" fill-rule="evenodd" clip-rule="evenodd" d="M14.4844 41.7656C17.8282 41.7656 21.1718 41.7656 24.5156 41.7656C24.2535 42.0747 23.9722 42.3716 23.6719 42.6562C23.9405 42.6734 24.1904 42.7203 24.4219 42.7969C20.5469 42.7969 16.6718 42.7969 12.7969 42.7969C13.0598 42.7201 13.3411 42.6732 13.6406 42.6562C13.941 42.3716 14.2222 42.0747 14.4844 41.7656Z" fill="#011638"/>
<path opacity="0.925" fill-rule="evenodd" clip-rule="evenodd" d="M24.5156 41.7656C26.3281 41.7656 28.1407 41.7656 29.9531 41.7656C29.6407 42.1094 29.3281 42.4531 29.0156 42.7969C27.4844 42.7969 25.9531 42.7969 24.4219 42.7969C24.1904 42.7203 23.9405 42.6734 23.6719 42.6562C23.9722 42.3716 24.2535 42.0747 24.5156 41.7656Z" fill="#011638"/>
<path opacity="0.952" fill-rule="evenodd" clip-rule="evenodd" d="M29.9531 41.7656C31.7656 41.7656 33.5782 41.7656 35.3906 41.7656C35.1285 42.0747 34.8472 42.3716 34.5469 42.6562C34.7846 42.6737 35.0033 42.7206 35.2031 42.7969C33.1406 42.7969 31.0781 42.7969 29.0156 42.7969C29.3281 42.4531 29.6407 42.1094 29.9531 41.7656Z" fill="#011638"/>
<path opacity="0.944" fill-rule="evenodd" clip-rule="evenodd" d="M35.3906 41.7656C37.1093 41.7656 38.8282 41.7656 40.5469 41.7656C40.2344 42.1094 39.9218 42.4531 39.6094 42.7969C38.1406 42.7969 36.6719 42.7969 35.2031 42.7969C35.0033 42.7206 34.7846 42.6737 34.5469 42.6562C34.8472 42.3716 35.1285 42.0747 35.3906 41.7656Z" fill="#011638"/>
</svg>
