<svg width="35" height="35" viewBox="0 0 35 35" fill="none" xmlns="http://www.w3.org/2000/svg">
<path opacity="0.924" fill-rule="evenodd" clip-rule="evenodd" d="M8.64758 3.8623C8.45645 4.08771 8.25137 4.30418 8.03235 4.51172C7.58712 4.52348 7.15413 4.55766 6.73352 4.61426C5.56664 4.583 4.40453 4.61718 3.24719 4.71679C2.64539 5.04928 2.41753 5.56198 2.5636 6.25488C2.31539 6.4688 2.07613 6.69666 1.84582 6.93847C1.83409 7.40646 1.79991 7.86221 1.74328 8.30566C1.73189 7.34836 1.74329 6.39133 1.77746 5.43457C1.95583 4.65468 2.42296 4.14198 3.17883 3.89648C5.00161 3.8623 6.82452 3.85091 8.64758 3.8623Z" fill="white"/>
<path opacity="0.958" fill-rule="evenodd" clip-rule="evenodd" d="M8.64746 3.8623C10.083 3.8623 11.5186 3.8623 12.9541 3.8623C12.7263 4.11296 12.4983 4.3636 12.2705 4.61426C10.4248 4.61426 8.5791 4.61426 6.7334 4.61426C7.15401 4.55766 7.587 4.52348 8.03223 4.51172C8.25125 4.30419 8.45633 4.08771 8.64746 3.8623Z" fill="white"/>
<path opacity="0.938" fill-rule="evenodd" clip-rule="evenodd" d="M12.9541 3.8623C14.5491 3.8623 16.1442 3.8623 17.7393 3.8623C17.5114 4.11296 17.2835 4.3636 17.0557 4.61426C15.4606 4.61426 13.8655 4.61426 12.2705 4.61426C12.4983 4.3636 12.7263 4.11296 12.9541 3.8623Z" fill="white"/>
<path opacity="0.958" fill-rule="evenodd" clip-rule="evenodd" d="M17.7393 3.8623C18.833 3.8623 19.9268 3.8623 21.0205 3.8623C20.7927 4.11296 20.5648 4.3636 20.3369 4.61426C19.2432 4.61426 18.1494 4.61426 17.0557 4.61426C17.2835 4.3636 17.5114 4.11296 17.7393 3.8623Z" fill="white"/>
<path opacity="0.934" fill-rule="evenodd" clip-rule="evenodd" d="M21.0205 3.8623C22.57 3.8623 24.1194 3.8623 25.6689 3.8623C25.4411 4.11296 25.2132 4.3636 24.9854 4.61426C23.4358 4.61426 21.8864 4.61426 20.3369 4.61426C20.5648 4.3636 20.7927 4.11296 21.0205 3.8623Z" fill="white"/>
<path opacity="0.964" fill-rule="evenodd" clip-rule="evenodd" d="M25.6689 3.8623C26.8767 3.8623 28.0843 3.8623 29.292 3.8623C29.1009 4.08771 28.8958 4.30419 28.6768 4.51172C28.4358 4.52393 28.2079 4.55811 27.9932 4.61426C26.9905 4.61426 25.988 4.61426 24.9854 4.61426C25.2132 4.3636 25.4411 4.11296 25.6689 3.8623Z" fill="white"/>
<path opacity="0.954" fill-rule="evenodd" clip-rule="evenodd" d="M29.292 3.8623C30.1354 3.85092 30.9785 3.86231 31.8213 3.89648C32.1545 3.98273 32.4279 4.15363 32.6416 4.40917C32.4322 4.51521 32.25 4.66333 32.0947 4.85351C32.1461 4.89937 32.169 4.95633 32.1631 5.02441C32.0029 4.83098 31.7978 4.70566 31.5479 4.64843C30.3632 4.61426 29.1783 4.60286 27.9932 4.61425C28.2079 4.55811 28.4358 4.52393 28.6768 4.51171C28.8958 4.30418 29.1009 4.08771 29.292 3.8623Z" fill="white"/>
<path opacity="0.951" fill-rule="evenodd" clip-rule="evenodd" d="M32.6416 4.40918C32.9164 4.63907 33.0873 4.93529 33.1543 5.29785C33.1885 6.16344 33.1999 7.02933 33.1885 7.89551C32.9378 8.12335 32.6872 8.35126 32.4365 8.5791C32.4479 7.57627 32.4365 6.57364 32.4023 5.57129C32.3772 5.36176 32.2974 5.17947 32.1631 5.02441C32.169 4.95633 32.1461 4.89937 32.0947 4.85352C32.25 4.66333 32.4322 4.51522 32.6416 4.40918Z" fill="white"/>
<path opacity="0.94" fill-rule="evenodd" clip-rule="evenodd" d="M24.9854 5.22949C25.9071 5.25122 26.4313 5.71834 26.5577 6.63086C26.314 7.83515 25.6076 8.2453 24.4385 7.86133C23.5585 7.09386 23.5358 6.29635 24.3702 5.46875C24.5724 5.35908 24.7775 5.27933 24.9854 5.22949ZM24.9854 6.0498C25.4971 6.04865 25.7363 6.2993 25.7032 6.80176C25.5608 7.17117 25.2987 7.29647 24.917 7.17773C24.6047 7.00403 24.5022 6.74196 24.6094 6.3916C24.7055 6.23822 24.8308 6.1243 24.9854 6.0498Z" fill="white"/>
<path opacity="0.959" fill-rule="evenodd" clip-rule="evenodd" d="M20.6787 5.22949C21.7581 5.29467 22.2708 5.86433 22.2168 6.93848C21.8024 7.97139 21.0846 8.25617 20.0635 7.79297C19.4224 7.24473 19.2971 6.59531 19.6875 5.84473C19.962 5.53345 20.2924 5.32837 20.6787 5.22949ZM20.6787 6.0498C21.2506 6.04025 21.4898 6.31369 21.3965 6.87012C21.2228 7.18245 20.9607 7.28499 20.6104 7.17773C20.1464 6.77992 20.1693 6.40394 20.6787 6.0498Z" fill="white"/>
<path opacity="0.961" fill-rule="evenodd" clip-rule="evenodd" d="M29.2919 5.22949C30.4326 5.32254 30.9226 5.93778 30.7617 7.0752C30.3877 7.90576 29.7611 8.19062 28.8818 7.92969C28.1324 7.50524 27.8932 6.87866 28.164 6.0498C28.4177 5.60167 28.7937 5.32824 29.2919 5.22949ZM29.2236 6.0498C29.7694 6.01463 30.0314 6.26529 30.0097 6.80176C29.7061 7.29429 29.3415 7.33988 28.916 6.93848C28.793 6.567 28.8955 6.27078 29.2236 6.0498Z" fill="white"/>
<path opacity="0.92" fill-rule="evenodd" clip-rule="evenodd" d="M2.56348 6.25488C2.56348 7.05243 2.56348 7.84991 2.56348 8.64746C3.40657 8.64746 4.24968 8.64746 5.09277 8.64746C5.23845 8.70311 5.39796 8.73729 5.57129 8.75C5.36621 8.95508 5.16113 9.16016 4.95605 9.36523C4.73767 9.37761 4.5326 9.41179 4.34082 9.46777C3.74837 9.46777 3.15593 9.46777 2.56348 9.46777C2.56348 10.0602 2.56348 10.6526 2.56348 11.2451C2.50746 11.4369 2.47328 11.6419 2.46094 11.8604C2.23063 12.1021 1.99137 12.33 1.74316 12.5439C1.74316 11.1312 1.74316 9.71845 1.74316 8.30566C1.79979 7.86222 1.83397 7.40646 1.8457 6.93848C2.07601 6.69666 2.31527 6.4688 2.56348 6.25488Z" fill="white"/>
<path opacity="0.809" fill-rule="evenodd" clip-rule="evenodd" d="M5.09277 8.64746C6.5739 8.64746 8.05499 8.64746 9.53613 8.64746C9.19707 8.81378 8.90087 9.05304 8.64746 9.36523C8.71008 9.38424 8.75561 9.41842 8.78418 9.46777C7.30304 9.46777 5.82194 9.46777 4.34082 9.46777C4.5326 9.41179 4.73767 9.37761 4.95605 9.36523C5.16113 9.16016 5.36621 8.95508 5.57129 8.75C5.39796 8.73729 5.23845 8.70311 5.09277 8.64746Z" fill="white"/>
<path opacity="0.872" fill-rule="evenodd" clip-rule="evenodd" d="M9.53613 8.64746C11.0628 8.64746 12.5895 8.64746 14.1162 8.64746C13.7184 8.70406 13.3083 8.73824 12.8857 8.75C12.6807 8.95508 12.4756 9.16016 12.2705 9.36523C12.6476 9.37706 13.0121 9.41124 13.3643 9.46777C11.8376 9.46777 10.3108 9.46777 8.78418 9.46777C8.75561 9.41842 8.71008 9.38424 8.64746 9.36523C8.90087 9.05304 9.19707 8.81378 9.53613 8.64746Z" fill="white"/>
<path opacity="0.968" fill-rule="evenodd" clip-rule="evenodd" d="M14.1162 8.64746C14.3669 8.64746 14.6175 8.64746 14.8682 8.64746C15.2888 8.70406 15.7218 8.73824 16.167 8.75C15.9619 8.95508 15.7568 9.16016 15.5518 9.36523C15.061 9.37692 14.5825 9.4111 14.1162 9.46777C13.8655 9.46777 13.6149 9.46777 13.3643 9.46777C13.0121 9.41124 12.6476 9.37706 12.2705 9.36523C12.4756 9.16016 12.6807 8.95508 12.8857 8.75C13.3083 8.73824 13.7184 8.70406 14.1162 8.64746Z" fill="white"/>
<path opacity="0.849" fill-rule="evenodd" clip-rule="evenodd" d="M14.8682 8.64746C17.0557 8.64746 19.2432 8.64746 21.4307 8.64746C21.2389 8.70345 21.0338 8.73763 20.8154 8.75C20.6104 8.95508 20.4053 9.16016 20.2002 9.36523C20.3736 9.37795 20.533 9.41213 20.6787 9.46777C18.4912 9.46777 16.3037 9.46777 14.1162 9.46777C14.5825 9.4111 15.061 9.37692 15.5518 9.36523C15.7568 9.16016 15.9619 8.95508 16.167 8.75C15.7218 8.73824 15.2888 8.70406 14.8682 8.64746Z" fill="white"/>
<path opacity="0.932" fill-rule="evenodd" clip-rule="evenodd" d="M21.4307 8.64746C22.0459 8.64746 22.6611 8.64746 23.2764 8.64746C23.6513 8.70399 24.0387 8.73817 24.4385 8.75C24.2334 8.95508 24.0283 9.16016 23.8232 9.36523C23.378 9.37699 22.945 9.41117 22.5244 9.46777C21.9092 9.46777 21.2939 9.46777 20.6787 9.46777C20.533 9.41213 20.3736 9.37795 20.2002 9.36523C20.4053 9.16016 20.6104 8.95508 20.8154 8.75C21.0338 8.73763 21.2389 8.70345 21.4307 8.64746Z" fill="white"/>
<path opacity="0.826" fill-rule="evenodd" clip-rule="evenodd" d="M23.2764 8.64746C24.9398 8.64746 26.6032 8.64746 28.2666 8.64746C28.0159 8.9209 27.7653 9.19434 27.5146 9.46777C25.8513 9.46777 24.1878 9.46777 22.5244 9.46777C22.945 9.41117 23.378 9.37699 23.8232 9.36523C24.0283 9.16016 24.2334 8.95508 24.4385 8.75C24.0387 8.73817 23.6513 8.70399 23.2764 8.64746Z" fill="white"/>
<path opacity="0.878" fill-rule="evenodd" clip-rule="evenodd" d="M28.2666 8.64746C29.6338 8.64746 31.001 8.64746 32.3682 8.64746C32.1175 8.9209 31.8669 9.19434 31.6162 9.46777C30.249 9.46777 28.8818 9.46777 27.5146 9.46777C27.7653 9.19434 28.0159 8.9209 28.2666 8.64746Z" fill="white"/>
<path opacity="0.971" fill-rule="evenodd" clip-rule="evenodd" d="M33.1885 7.89551C33.1885 9.12598 33.1885 10.3564 33.1885 11.5869C32.9378 11.8148 32.6872 12.0427 32.4365 12.2705C32.4365 11.3362 32.4365 10.402 32.4365 9.46777C32.1631 9.46777 31.8896 9.46777 31.6162 9.46777C31.8669 9.19434 32.1175 8.9209 32.3682 8.64746C32.4138 8.64746 32.4365 8.6247 32.4365 8.5791C32.6872 8.35126 32.9378 8.12335 33.1885 7.89551Z" fill="white"/>
<path opacity="0.892" fill-rule="evenodd" clip-rule="evenodd" d="M2.56348 11.2451C2.56348 12.2705 2.56348 13.2959 2.56348 14.3213C2.31527 14.5352 2.07601 14.7631 1.8457 15.0049C1.83394 14.5597 1.79976 14.1267 1.74316 13.7061C1.74316 13.3187 1.74316 12.9313 1.74316 12.5439C1.99137 12.33 2.23063 12.1021 2.46094 11.8604C2.47328 11.6419 2.50746 11.4369 2.56348 11.2451Z" fill="white"/>
<path opacity="0.951" fill-rule="evenodd" clip-rule="evenodd" d="M12.2021 12.6123C12.0704 12.8356 11.9109 13.0407 11.7236 13.2275C11.22 12.7708 10.6276 12.4973 9.94629 12.4072C9.94629 13.2731 9.94629 14.139 9.94629 15.0049C9.67101 15.2346 9.42033 15.4852 9.19434 15.7568C9.12707 14.6456 9.10424 13.5291 9.12598 12.4072C7.68694 12.6727 6.78685 13.5158 6.42578 14.9365C6.26735 15.9758 6.5294 16.8872 7.21191 17.6709C7.05243 17.876 6.87012 18.0583 6.66504 18.2178C5.94833 17.4708 5.58374 16.5708 5.57129 15.5176C5.79381 13.0962 7.11539 11.7859 9.53613 11.5869C10.5602 11.5938 11.4488 11.9355 12.2021 12.6123Z" fill="white"/>
<path opacity="0.961" fill-rule="evenodd" clip-rule="evenodd" d="M25.3271 11.5869C26.6034 11.5755 27.8794 11.5869 29.1553 11.6211C29.2179 11.6467 29.2749 11.6808 29.3262 11.7236C29.393 11.9403 29.3588 12.134 29.2236 12.3047C27.6971 12.3389 26.1704 12.3503 24.6436 12.3389C24.8714 12.0882 25.0993 11.8376 25.3271 11.5869Z" fill="white"/>
<path opacity="0.958" fill-rule="evenodd" clip-rule="evenodd" d="M33.1885 11.5869C33.1885 12.9997 33.1885 14.4124 33.1885 15.8252C33.1326 15.6564 33.0984 15.4742 33.0859 15.2783C32.9036 15.4606 32.7214 15.6429 32.5391 15.8252C32.5266 15.6293 32.4924 15.4471 32.4365 15.2783C32.4365 14.2757 32.4365 13.2731 32.4365 12.2705C32.6872 12.0427 32.9378 11.8148 33.1885 11.5869Z" fill="white"/>
<path opacity="0.993" fill-rule="evenodd" clip-rule="evenodd" d="M25.3272 11.5869C25.0994 11.8376 24.8715 12.0882 24.6436 12.3389C22.8889 12.3503 21.1344 12.3389 19.38 12.3047C19.1863 12.0543 19.2091 11.8265 19.4483 11.6211C21.4078 11.5869 23.3674 11.5755 25.3272 11.5869Z" fill="white"/>
<path opacity="0.963" fill-rule="evenodd" clip-rule="evenodd" d="M12.2021 12.6123C12.7441 13.1258 13.1315 13.741 13.3643 14.458C13.1836 14.8 12.9329 15.0279 12.6123 15.1416C11.6962 15.3593 10.7848 15.5985 9.87793 15.8594C9.69562 15.905 9.51337 15.905 9.33105 15.8594C9.26844 15.8404 9.22291 15.8062 9.19434 15.7568C9.42033 15.4852 9.67101 15.2346 9.94629 15.0049C10.7613 14.7783 11.5817 14.5733 12.4072 14.3896C12.2932 13.9342 12.0654 13.5468 11.7236 13.2275C11.9109 13.0407 12.0704 12.8356 12.2021 12.6123Z" fill="white"/>
<path opacity="0.957" fill-rule="evenodd" clip-rule="evenodd" d="M24.9169 13.501C24.4151 13.4896 23.9138 13.501 23.413 13.5352C23.1712 13.7655 22.9433 14.0047 22.7294 14.2529C21.9774 14.2529 21.2255 14.2529 20.4735 14.2529C20.4735 15.0049 20.4735 15.7569 20.4735 16.5088C20.2481 16.6999 20.0316 16.905 19.8241 17.124C19.7979 17.086 19.7637 17.0633 19.7216 17.0557C19.7102 15.9161 19.7216 14.7768 19.7557 13.6377C19.7899 13.6035 19.8241 13.5694 19.8583 13.5352C20.7179 13.4566 21.5838 13.4224 22.4559 13.4326C23.2879 13.4326 24.1083 13.4554 24.9169 13.501Z" fill="white"/>
<path opacity="0.947" fill-rule="evenodd" clip-rule="evenodd" d="M24.917 13.501C25.0207 13.5017 25.1005 13.5473 25.1562 13.6377C25.1904 14.3893 25.2018 15.1413 25.1904 15.8936C24.965 16.0847 24.7486 16.2898 24.541 16.5088C24.5283 16.3354 24.4941 16.176 24.4385 16.0303C24.4385 15.4378 24.4385 14.8454 24.4385 14.2529C23.8688 14.2529 23.2991 14.2529 22.7295 14.2529C22.9434 14.0047 23.1713 13.7655 23.4131 13.5352C23.9139 13.501 24.4152 13.4896 24.917 13.501Z" fill="white"/>
<path opacity="0.984" fill-rule="evenodd" clip-rule="evenodd" d="M26.0791 14.7998C27.1047 14.7884 28.1301 14.7998 29.1553 14.834C29.4287 15.0847 29.4287 15.3353 29.1553 15.5859C28.1299 15.6315 27.1045 15.6315 26.0791 15.5859C25.7201 15.3243 25.7201 15.0623 26.0791 14.7998Z" fill="white"/>
<path opacity="0.942" fill-rule="evenodd" clip-rule="evenodd" d="M32.4365 15.2783C32.4924 15.4471 32.5266 15.6293 32.5391 15.8252C32.7214 15.6429 32.9036 15.4606 33.0859 15.2783C33.0984 15.4742 33.1326 15.6564 33.1885 15.8252C33.1885 17.0329 33.1885 18.2405 33.1885 19.4482C33.136 19.3961 33.1018 19.3277 33.0859 19.2432C32.8784 19.4622 32.6619 19.6673 32.4365 19.8584C32.4365 18.3317 32.4365 16.805 32.4365 15.2783Z" fill="white"/>
<path opacity="0.905" fill-rule="evenodd" clip-rule="evenodd" d="M1.74316 13.7061C1.79976 14.1267 1.83394 14.5597 1.8457 15.0049C2.07601 14.7631 2.31527 14.5352 2.56348 14.3213C2.56348 15.9163 2.56348 17.5114 2.56348 19.1064C2.31527 19.3203 2.07601 19.5483 1.8457 19.79C1.8332 19.5942 1.79902 19.4119 1.74316 19.2432C1.74316 17.3975 1.74316 15.5518 1.74316 13.7061Z" fill="white"/>
<path opacity="0.954" fill-rule="evenodd" clip-rule="evenodd" d="M13.3643 14.458C13.7669 16.4203 13.1289 17.9356 11.4502 19.0039C10.1178 19.6145 8.79621 19.5917 7.48535 18.9355C7.16857 18.7434 6.89514 18.5041 6.66504 18.2178C6.87012 18.0583 7.05243 17.876 7.21191 17.6709C8.52482 18.8817 9.93761 19.007 11.4502 18.0469C12.3974 17.2882 12.7848 16.3198 12.6123 15.1416C12.9329 15.0279 13.1836 14.8 13.3643 14.458Z" fill="white"/>
<path opacity="0.954" fill-rule="evenodd" clip-rule="evenodd" d="M20.4737 16.5088C20.4737 17.0329 20.4737 17.5569 20.4737 18.0811C20.7699 18.0811 21.0662 18.0811 21.3624 18.0811C21.8515 18.1377 22.3529 18.1719 22.8663 18.1836C22.6245 18.4139 22.3966 18.6532 22.1827 18.9014C21.4304 18.9128 20.6785 18.9014 19.9269 18.8672C19.8699 18.8102 19.8129 18.7532 19.756 18.6963C19.7218 18.1499 19.7104 17.603 19.7218 17.0557C19.764 17.0633 19.7981 17.086 19.8243 17.124C20.0319 16.905 20.2484 16.6999 20.4737 16.5088Z" fill="white"/>
<path opacity="0.897" fill-rule="evenodd" clip-rule="evenodd" d="M25.1904 15.8936C25.212 16.8539 25.1893 17.811 25.1221 18.7646C25.0862 18.812 25.0406 18.8461 24.9854 18.8672C24.0514 18.9014 23.1172 18.9128 22.1826 18.9014C22.3965 18.6532 22.6244 18.4139 22.8662 18.1836C22.3528 18.1719 21.8514 18.1377 21.3623 18.0811C22.3877 18.0811 23.4131 18.0811 24.4385 18.0811C24.4385 17.3975 24.4385 16.7139 24.4385 16.0303C24.4941 16.1759 24.5283 16.3354 24.541 16.5088C24.7486 16.2898 24.965 16.0847 25.1904 15.8936Z" fill="white"/>
<path opacity="0.948" fill-rule="evenodd" clip-rule="evenodd" d="M26.0108 17.5342C27.082 17.5228 28.153 17.5342 29.2237 17.5684C29.406 17.7962 29.406 18.0241 29.2237 18.252C28.1527 18.2976 27.0818 18.2976 26.0108 18.252C25.7418 18.013 25.7418 17.7737 26.0108 17.5342Z" fill="white"/>
<path opacity="0.889" fill-rule="evenodd" clip-rule="evenodd" d="M2.56348 19.1064C2.56348 19.7444 2.56348 20.3825 2.56348 21.0205C2.50684 21.4868 2.47266 21.9653 2.46094 22.4561C2.23063 22.6978 1.99137 22.9258 1.74316 23.1396C1.74316 21.8408 1.74316 20.542 1.74316 19.2432C1.79902 19.4119 1.8332 19.5942 1.8457 19.79C2.07601 19.5483 2.31527 19.3203 2.56348 19.1064Z" fill="white"/>
<path opacity="0.956" fill-rule="evenodd" clip-rule="evenodd" d="M33.1885 19.4482C33.1885 20.6787 33.1885 21.9092 33.1885 23.1396C32.9378 23.3675 32.6872 23.5954 32.4365 23.8232C32.4365 22.5017 32.4365 21.18 32.4365 19.8584C32.6619 19.6673 32.8784 19.4622 33.0859 19.2432C33.1018 19.3277 33.136 19.3961 33.1885 19.4482Z" fill="white"/>
<path opacity="0.941" fill-rule="evenodd" clip-rule="evenodd" d="M13.3641 22.3193C13.3075 22.7628 13.2734 23.2185 13.2616 23.6865C13.0565 23.8916 12.8514 24.0967 12.6464 24.3017C12.6339 24.4976 12.5997 24.6798 12.5438 24.8486C12.5438 23.5954 12.5438 22.3421 12.5438 21.0889C12.0653 21.0889 11.5868 21.0889 11.1083 21.0889C11.1083 23.0485 11.1083 25.0081 11.1083 26.9678C11.0518 26.6385 11.0176 26.2967 11.0057 25.9424C10.7754 26.1842 10.5362 26.4121 10.288 26.626C10.2766 24.5978 10.288 22.5699 10.3222 20.542C10.3791 20.485 10.4361 20.428 10.4931 20.3711C11.3817 20.3255 12.2704 20.3255 13.1591 20.3711C13.2543 20.4511 13.3113 20.5537 13.33 20.6787C13.3641 21.2251 13.3755 21.772 13.3641 22.3193Z" fill="white"/>
<path opacity="0.941" fill-rule="evenodd" clip-rule="evenodd" d="M23.5498 21.1572C23.2991 21.4307 23.0485 21.7041 22.7978 21.9775C21.8178 21.989 20.8379 21.9775 19.8584 21.9434C19.565 21.7807 19.5194 21.5642 19.7217 21.294C19.8102 21.2531 19.9013 21.2189 19.9951 21.1914C21.1798 21.1572 22.3646 21.1458 23.5498 21.1572Z" fill="white"/>
<path opacity="0.952" fill-rule="evenodd" clip-rule="evenodd" d="M23.5498 21.1572C25.3729 21.1458 27.1958 21.1572 29.0186 21.1914C29.3411 21.2905 29.4436 21.5069 29.3262 21.8408C29.2749 21.8836 29.2179 21.9178 29.1553 21.9434C27.0363 21.9775 24.9171 21.989 22.7979 21.9775C23.0485 21.7041 23.2991 21.4307 23.5498 21.1572Z" fill="white"/>
<path opacity="0.951" fill-rule="evenodd" clip-rule="evenodd" d="M18.0126 23.0713C17.7872 23.2624 17.5707 23.4675 17.3632 23.6865C17.3505 23.5131 17.3163 23.3537 17.2606 23.208C17.2606 23.094 17.2606 22.9802 17.2606 22.8662C16.7821 22.8662 16.3036 22.8662 15.8251 22.8662C15.8251 23.2764 15.8251 23.6865 15.8251 24.0967C15.7685 24.4944 15.7343 24.9046 15.7225 25.3271C15.4922 25.5689 15.253 25.7968 15.0048 26.0107C14.9934 24.7801 15.0048 23.5496 15.039 22.3193C15.06 22.2641 15.0942 22.2185 15.1415 22.1826C16.0498 22.1041 16.9613 22.0927 17.8759 22.1484C17.91 22.1826 17.9442 22.2168 17.9784 22.251C18.0125 22.5234 18.0239 22.7969 18.0126 23.0713Z" fill="white"/>
<path opacity="0.955" fill-rule="evenodd" clip-rule="evenodd" d="M33.1885 23.1396C33.1885 24.3929 33.1885 25.6462 33.1885 26.8994C32.9378 27.1273 32.6872 27.3552 32.4365 27.583C32.4365 26.3298 32.4365 25.0765 32.4365 23.8232C32.6872 23.5954 32.9378 23.3675 33.1885 23.1396Z" fill="white"/>
<path opacity="0.952" fill-rule="evenodd" clip-rule="evenodd" d="M8.57922 22.456C8.59064 23.1856 8.57922 23.9148 8.54504 24.6435C8.33996 24.8486 8.13489 25.0537 7.92981 25.2588C7.9108 25.1962 7.87662 25.1506 7.82727 25.1221C7.82727 24.3701 7.82727 23.6182 7.82727 22.8662C7.34875 22.8662 6.87024 22.8662 6.39172 22.8662C6.39172 23.5726 6.39172 24.279 6.39172 24.9853C6.33499 25.6114 6.30081 26.2494 6.28918 26.8994C6.0841 27.1045 5.87903 27.3096 5.67395 27.5146C5.66145 27.3188 5.62727 27.1365 5.57141 26.9678C5.56002 25.4181 5.57141 23.8686 5.60559 22.3193C5.66255 22.2624 5.71952 22.2054 5.77649 22.1484C6.66516 22.1028 7.55383 22.1028 8.4425 22.1484C8.54757 22.2243 8.5931 22.3268 8.57922 22.456Z" fill="white"/>
<path opacity="0.847" fill-rule="evenodd" clip-rule="evenodd" d="M2.56348 21.0205C2.56348 23.0257 2.56348 25.0309 2.56348 27.0361C2.29004 27.2868 2.0166 27.5374 1.74316 27.7881C1.74316 26.2386 1.74316 24.6892 1.74316 23.1396C1.99137 22.9258 2.23063 22.6978 2.46094 22.4561C2.47266 21.9653 2.50684 21.4868 2.56348 21.0205Z" fill="white"/>
<path opacity="0.955" fill-rule="evenodd" clip-rule="evenodd" d="M13.3644 22.3193C13.3968 24.2605 13.3627 26.1974 13.2618 28.1299C13.2276 28.1641 13.1935 28.1982 13.1593 28.2324C12.2447 28.2881 11.3333 28.2767 10.4249 28.1982C10.3776 28.1624 10.3434 28.1168 10.3224 28.0615C10.2882 27.5836 10.2768 27.105 10.2882 26.626C10.5364 26.4121 10.7757 26.1842 11.006 25.9424C11.0179 26.2968 11.052 26.6386 11.1085 26.9678C11.1085 27.1501 11.1085 27.3323 11.1085 27.5146C11.587 27.5146 12.0655 27.5146 12.544 27.5146C12.544 26.626 12.544 25.7373 12.544 24.8486C12.5999 24.6799 12.6341 24.4976 12.6466 24.3018C12.8517 24.0967 13.0567 23.8916 13.2618 23.6865C13.2736 23.2185 13.3078 22.7628 13.3644 22.3193Z" fill="white"/>
<path opacity="0.896" fill-rule="evenodd" clip-rule="evenodd" d="M23.2079 23.8916C23.5829 23.9481 23.9702 23.9823 24.37 23.9942C24.1282 24.2245 23.9003 24.4637 23.6864 24.7119C22.4101 24.7233 21.1341 24.7119 19.8583 24.6777C19.5637 24.5019 19.5181 24.274 19.7216 23.9942C19.7899 23.9714 19.8583 23.9486 19.9266 23.9258C21.0202 23.8916 22.1139 23.8802 23.2079 23.8916Z" fill="white"/>
<path opacity="0.843" fill-rule="evenodd" clip-rule="evenodd" d="M23.208 23.8916C25.1678 23.8802 27.1274 23.8916 29.0869 23.9258C29.3461 24.0661 29.4258 24.2826 29.3262 24.5752C29.2749 24.618 29.2179 24.6522 29.1553 24.6777C27.3325 24.7119 25.5096 24.7233 23.6865 24.7119C23.9004 24.4637 24.1283 24.2245 24.3701 23.9942C23.9704 23.9823 23.583 23.9481 23.208 23.8916Z" fill="white"/>
<path opacity="0.945" fill-rule="evenodd" clip-rule="evenodd" d="M8.5792 22.4561C8.62479 23.3558 8.64756 24.2673 8.64756 25.1904C8.65726 26.1747 8.62309 27.1545 8.54502 28.1299C8.51084 28.1641 8.47666 28.1982 8.44248 28.2324C7.55381 28.278 6.66514 28.278 5.77646 28.2324C5.69671 28.1982 5.63975 28.1413 5.60557 28.0615C5.57143 27.6976 5.56004 27.3331 5.57139 26.9678C5.62724 27.1366 5.66142 27.3188 5.67393 27.5146C5.879 27.3096 6.08408 27.1045 6.28916 26.8994C6.30079 26.2494 6.33497 25.6114 6.3917 24.9854C6.3917 25.8284 6.3917 26.6716 6.3917 27.5146C6.87021 27.5146 7.34873 27.5146 7.82725 27.5146C7.82725 26.7171 7.82725 25.9196 7.82725 25.1221C7.8766 25.1506 7.91078 25.1962 7.92978 25.2588C8.13486 25.0537 8.33994 24.8486 8.54502 24.6436C8.5792 23.9148 8.59061 23.1856 8.5792 22.4561Z" fill="white"/>
<path opacity="0.828" fill-rule="evenodd" clip-rule="evenodd" d="M24.7119 26.626C24.8807 26.6818 25.0629 26.716 25.2588 26.7285C25.017 26.9588 24.7891 27.1981 24.5752 27.4463C23.0028 27.4577 21.4305 27.4463 19.8584 27.4121C19.4938 27.1614 19.4938 26.9108 19.8584 26.6602C21.476 26.626 23.0939 26.6146 24.7119 26.626Z" fill="white"/>
<path opacity="0.902" fill-rule="evenodd" clip-rule="evenodd" d="M24.7119 26.626C26.1704 26.6146 27.6287 26.626 29.0869 26.6602C29.3604 26.8042 29.4288 27.0206 29.292 27.3096C29.2561 27.3569 29.2105 27.3911 29.1553 27.4121C27.6287 27.4463 26.1021 27.4577 24.5752 27.4463C24.7891 27.1981 25.017 26.9588 25.2588 26.7285C25.0629 26.716 24.8807 26.6818 24.7119 26.626Z" fill="white"/>
<path opacity="0.971" fill-rule="evenodd" clip-rule="evenodd" d="M18.0128 23.0713C18.0242 24.7576 18.0128 26.4439 17.9786 28.1299C17.9444 28.1641 17.9103 28.1982 17.8761 28.2324C16.9615 28.2881 16.0501 28.2767 15.1417 28.1982C15.0944 28.1624 15.0602 28.1168 15.0392 28.0615C15.005 27.3783 14.9936 26.6947 15.005 26.0107C15.2532 25.7968 15.4925 25.5689 15.7228 25.3271C15.7345 24.9046 15.7687 24.4945 15.8253 24.0967C15.8253 25.236 15.8253 26.3753 15.8253 27.5146C16.3038 27.5146 16.7823 27.5146 17.2608 27.5146C17.2608 26.0791 17.2608 24.6436 17.2608 23.208C17.3165 23.3537 17.3507 23.5132 17.3634 23.6865C17.5709 23.4675 17.7874 23.2624 18.0128 23.0713Z" fill="white"/>
<path opacity="0.949" fill-rule="evenodd" clip-rule="evenodd" d="M33.1885 26.8994C33.1999 27.8567 33.1885 28.8138 33.1543 29.7705C32.9507 30.5387 32.4607 31.0058 31.6846 31.1719C30.7506 31.2061 29.8164 31.2175 28.8818 31.2061C29.1097 30.9554 29.3376 30.7048 29.5654 30.4541C30.1583 30.4654 30.7508 30.4541 31.3428 30.4199C31.9075 30.3566 32.2607 30.0489 32.4023 29.4971C32.4365 28.8595 32.4479 28.2214 32.4365 27.583C32.6872 27.3552 32.9378 27.1273 33.1885 26.8994Z" fill="white"/>
<path opacity="0.895" fill-rule="evenodd" clip-rule="evenodd" d="M2.56348 27.0361C2.55209 27.9023 2.56349 28.7682 2.59766 29.6338C2.68471 29.8455 2.81003 30.0278 2.97364 30.1807C2.78637 30.3675 2.62687 30.5726 2.49512 30.7959C2.17991 30.5771 1.96344 30.2809 1.84571 29.9072C1.75207 29.2047 1.71789 28.4983 1.74317 27.7881C2.01661 27.5374 2.29004 27.2868 2.56348 27.0361Z" fill="white"/>
<path opacity="0.979" fill-rule="evenodd" clip-rule="evenodd" d="M2.97363 30.1807C3.17954 30.3175 3.40741 30.3973 3.65723 30.4199C4.59119 30.4541 5.52544 30.4655 6.45996 30.4541C6.26886 30.6795 6.06378 30.896 5.84473 31.1035C5.99565 31.1166 6.13237 31.1508 6.25488 31.2061C5.2748 31.2175 4.29499 31.2061 3.31543 31.1719C2.99576 31.1307 2.72232 31.0054 2.49512 30.7959C2.62687 30.5726 2.78637 30.3675 2.97363 30.1807Z" fill="white"/>
<path opacity="0.967" fill-rule="evenodd" clip-rule="evenodd" d="M6.45996 30.4541C7.82715 30.4541 9.19434 30.4541 10.5615 30.4541C10.3704 30.6795 10.1653 30.896 9.94629 31.1035C9.72788 31.1159 9.5228 31.1501 9.33105 31.2061C8.30566 31.2061 7.28027 31.2061 6.25488 31.2061C6.13237 31.1508 5.99565 31.1166 5.84473 31.1035C6.06378 30.896 6.26886 30.6795 6.45996 30.4541Z" fill="white"/>
<path opacity="0.963" fill-rule="evenodd" clip-rule="evenodd" d="M10.5615 30.4541C12.9997 30.4541 15.4378 30.4541 17.876 30.4541C17.6848 30.6795 17.4798 30.896 17.2607 31.1035C17.4566 31.116 17.6388 31.1502 17.8076 31.2061C14.9821 31.2061 12.1566 31.2061 9.33105 31.2061C9.5228 31.1501 9.72788 31.1159 9.94629 31.1035C10.1653 30.896 10.3704 30.6795 10.5615 30.4541Z" fill="white"/>
<path opacity="0.925" fill-rule="evenodd" clip-rule="evenodd" d="M17.876 30.4541C19.1976 30.4541 20.5192 30.4541 21.8408 30.4541C21.613 30.7048 21.3851 30.9554 21.1572 31.2061C20.0407 31.2061 18.9241 31.2061 17.8076 31.2061C17.6388 31.1502 17.4566 31.116 17.2607 31.1035C17.4798 30.896 17.6848 30.6795 17.876 30.4541Z" fill="white"/>
<path opacity="0.952" fill-rule="evenodd" clip-rule="evenodd" d="M21.8408 30.4541C23.1624 30.4541 24.4841 30.4541 25.8057 30.4541C25.6145 30.6795 25.4095 30.896 25.1904 31.1035C25.3638 31.1162 25.5233 31.1504 25.6689 31.2061C24.165 31.2061 22.6611 31.2061 21.1572 31.2061C21.3851 30.9554 21.613 30.7048 21.8408 30.4541Z" fill="white"/>
<path opacity="0.944" fill-rule="evenodd" clip-rule="evenodd" d="M25.8057 30.4541C27.0589 30.4541 28.3122 30.4541 29.5654 30.4541C29.3376 30.7048 29.1097 30.9554 28.8818 31.2061C27.8108 31.2061 26.7399 31.2061 25.6689 31.2061C25.5233 31.1504 25.3638 31.1162 25.1904 31.1035C25.4095 30.896 25.6145 30.6795 25.8057 30.4541Z" fill="white"/>
</svg>
