<svg width="156" height="156" viewBox="0 0 156 156" fill="none" xmlns="http://www.w3.org/2000/svg">
<path opacity="0.991" fill-rule="evenodd" clip-rule="evenodd" d="M3.19922 2.28515C17.2152 2.23438 31.2308 2.28516 45.2461 2.4375C45.4999 2.6914 45.754 2.94531 46.0078 3.19922C46.211 20.4649 46.211 37.7304 46.0078 54.9961C45.754 55.2499 45.4999 55.504 45.2461 55.7578C39.0515 55.9102 32.8563 55.961 26.6602 55.9102C26.6602 60.7852 26.6602 65.6602 26.6602 70.5352C42.9101 70.5352 59.1603 70.5352 75.4102 70.5352C75.4102 65.6602 75.4102 60.7852 75.4102 55.9102C69.214 55.961 63.0188 55.9102 56.8242 55.7578C56.5704 55.504 56.3163 55.2499 56.0625 54.9961C55.8593 53.168 55.8593 51.3398 56.0625 49.5117C56.3163 49.2579 56.5704 49.0038 56.8242 48.75C57.8397 48.5468 58.8556 48.5468 59.8711 48.75C60.6453 49.3131 60.95 50.0748 60.7852 51.0352C72.1601 51.0352 83.5353 51.0352 94.9102 51.0352C94.9102 36.4102 94.9102 21.7852 94.9102 7.16016C83.5353 7.16016 72.1601 7.16016 60.7852 7.16016C60.836 14.4734 60.7852 21.7859 60.6328 29.0977C59.1094 30.7226 57.5859 30.7226 56.0625 29.0977C55.8593 20.4649 55.8593 11.832 56.0625 3.19922C56.3163 2.94531 56.5704 2.6914 56.8242 2.4375C70.8398 2.23437 84.8555 2.23437 98.8711 2.4375C99.1249 2.6914 99.379 2.94531 99.6328 3.19922C99.836 20.4649 99.836 37.7304 99.6328 54.9961C99.379 55.2499 99.1249 55.504 98.8711 55.7578C92.6765 55.9102 86.4813 55.961 80.2852 55.9102C80.2852 60.7852 80.2852 65.6602 80.2852 70.5352C96.5351 70.5352 112.785 70.5352 129.035 70.5352C129.035 65.6602 129.035 60.7852 129.035 55.9102C122.839 55.961 116.644 55.9102 110.449 55.7578C110.195 55.504 109.941 55.2499 109.688 54.9961C109.484 37.7304 109.484 20.4649 109.688 3.19922C109.941 2.94531 110.195 2.6914 110.449 2.4375C124.465 2.23437 138.48 2.23437 152.496 2.4375C152.75 2.6914 153.004 2.94531 153.258 3.19922C153.461 5.02734 153.461 6.85547 153.258 8.68359C153.004 8.93749 152.75 9.19142 152.496 9.44531C151.481 9.64845 150.465 9.64845 149.449 9.44531C148.675 8.88213 148.37 8.12041 148.535 7.16016C137.16 7.16016 125.785 7.16016 114.41 7.16016C114.41 21.7852 114.41 36.4102 114.41 51.0352C125.785 51.0352 137.16 51.0352 148.535 51.0352C148.484 39.2535 148.535 27.4722 148.688 15.6914C150.211 14.0664 151.734 14.0664 153.258 15.6914C153.461 28.793 153.461 41.8945 153.258 54.9961C153.004 55.2499 152.75 55.504 152.496 55.7578C146.301 55.9102 140.106 55.961 133.91 55.9102C133.961 62.1063 133.91 68.3015 133.758 74.4961C133.504 74.7499 133.25 75.004 132.996 75.2578C115.426 75.4102 97.8559 75.461 80.2852 75.4102C80.2343 80.5908 80.2852 85.7704 80.4375 90.9492C82.326 88.959 84.3064 87.08 86.3789 85.3125C89.7296 84.8445 90.796 86.2156 89.5781 89.4258C86.3789 92.625 83.1797 95.8242 79.9805 99.0234C78.5795 100.016 77.1578 100.016 75.7148 99.0234C72.5156 95.8242 69.3164 92.625 66.1172 89.4258C64.8994 86.2156 65.9658 84.8445 69.3164 85.3125C71.3889 87.08 73.3694 88.959 75.2578 90.9492C75.4102 85.7704 75.461 80.5908 75.4102 75.4102C57.8394 75.461 40.2693 75.4102 22.6992 75.2578C22.4453 75.004 22.1914 74.7499 21.9375 74.4961C21.7852 68.3015 21.7344 62.1063 21.7852 55.9102C15.589 55.961 9.3937 55.9102 3.19922 55.7578C2.94531 55.504 2.69141 55.2499 2.4375 54.9961C2.23437 45.8555 2.23437 36.7148 2.4375 27.5742C2.69141 27.3203 2.94531 27.0664 3.19922 26.8125C4.21483 26.6094 5.23048 26.6094 6.24609 26.8125C6.49999 27.0664 6.75392 27.3203 7.00781 27.5742C7.16016 35.394 7.21092 43.2141 7.16016 51.0352C18.5351 51.0352 29.9102 51.0352 41.2852 51.0352C41.2852 36.4102 41.2852 21.7852 41.2852 7.16016C29.9102 7.16016 18.5351 7.16016 7.16016 7.16016C7.21092 11.6301 7.16013 16.0988 7.00781 20.5664C5.48438 22.1914 3.96094 22.1914 2.4375 20.5664C2.23437 14.7773 2.23437 8.98828 2.4375 3.19922C2.7559 2.93309 3.0098 2.6284 3.19922 2.28515Z" fill="white"/>
<path opacity="0.979" fill-rule="evenodd" clip-rule="evenodd" d="M12.9492 12.0351C20.4655 11.9844 27.9812 12.0351 35.4961 12.1875C35.7499 12.4414 36.004 12.6953 36.2578 12.9492C36.461 13.9648 36.461 14.9805 36.2578 15.9961C36.004 16.25 35.7499 16.5039 35.4961 16.7578C27.9805 16.9609 20.4648 16.9609 12.9492 16.7578C12.203 16.1901 11.8983 15.4284 12.0352 14.4726C11.9064 13.4728 12.2111 12.6603 12.9492 12.0351Z" fill="white"/>
<path opacity="0.979" fill-rule="evenodd" clip-rule="evenodd" d="M66.5742 12.0351C74.0905 11.9844 81.6063 12.0351 89.1211 12.1875C89.3749 12.4414 89.629 12.6953 89.8828 12.9492C90.086 13.9648 90.086 14.9805 89.8828 15.9961C89.629 16.25 89.3749 16.5039 89.1211 16.7578C81.6054 16.9609 74.0899 16.9609 66.5742 16.7578C65.828 16.1901 65.5233 15.4284 65.6602 14.4726C65.5316 13.4728 65.8363 12.6603 66.5742 12.0351Z" fill="white"/>
<path opacity="0.979" fill-rule="evenodd" clip-rule="evenodd" d="M120.199 12.0351C127.716 11.9844 135.231 12.0351 142.746 12.1875C143 12.4414 143.254 12.6953 143.508 12.9492C143.711 13.9648 143.711 14.9805 143.508 15.9961C143.254 16.25 143 16.5039 142.746 16.7578C135.23 16.9609 127.715 16.9609 120.199 16.7578C119.453 16.1901 119.148 15.4284 119.285 14.4726C119.157 13.4728 119.461 12.6603 120.199 12.0351Z" fill="white"/>
<path opacity="0.979" fill-rule="evenodd" clip-rule="evenodd" d="M12.9492 21.7851C20.4655 21.7344 27.9812 21.7851 35.4961 21.9375C35.7499 22.1914 36.004 22.4453 36.2578 22.6992C36.461 23.7148 36.461 24.7305 36.2578 25.7461C36.004 26 35.7499 26.2539 35.4961 26.5078C27.9805 26.7109 20.4648 26.7109 12.9492 26.5078C12.203 25.9401 11.8983 25.1784 12.0352 24.2226C11.9064 23.2228 12.2111 22.4103 12.9492 21.7851Z" fill="white"/>
<path opacity="0.979" fill-rule="evenodd" clip-rule="evenodd" d="M66.5742 21.7851C74.0905 21.7344 81.6063 21.7851 89.1211 21.9375C89.3749 22.1914 89.629 22.4453 89.8828 22.6992C90.086 23.7148 90.086 24.7305 89.8828 25.7461C89.629 26 89.3749 26.2539 89.1211 26.5078C81.6054 26.7109 74.0899 26.7109 66.5742 26.5078C65.828 25.9401 65.5233 25.1784 65.6602 24.2226C65.5316 23.2228 65.8363 22.4103 66.5742 21.7851Z" fill="white"/>
<path opacity="0.979" fill-rule="evenodd" clip-rule="evenodd" d="M120.199 21.7851C127.716 21.7344 135.231 21.7851 142.746 21.9375C143 22.1914 143.254 22.4453 143.508 22.6992C143.711 23.7148 143.711 24.7305 143.508 25.7461C143.254 26 143 26.2539 142.746 26.5078C135.23 26.7109 127.715 26.7109 120.199 26.5078C119.453 25.9401 119.148 25.1784 119.285 24.2226C119.157 23.2228 119.461 22.4103 120.199 21.7851Z" fill="white"/>
<path opacity="0.979" fill-rule="evenodd" clip-rule="evenodd" d="M12.9492 31.5352C20.4655 31.4843 27.9812 31.5352 35.4961 31.6875C35.7499 31.9413 36.004 32.1954 36.2578 32.4492C36.461 33.4648 36.461 34.4806 36.2578 35.4961C36.004 35.7499 35.7499 36.004 35.4961 36.2578C27.9805 36.4611 20.4648 36.4611 12.9492 36.2578C12.203 35.6902 11.8983 34.9285 12.0352 33.9727C11.9064 32.9727 12.2111 32.1604 12.9492 31.5352Z" fill="white"/>
<path opacity="0.979" fill-rule="evenodd" clip-rule="evenodd" d="M66.5742 31.5352C74.0905 31.4843 81.6063 31.5352 89.1211 31.6875C89.3749 31.9413 89.629 32.1954 89.8828 32.4492C90.086 33.4648 90.086 34.4806 89.8828 35.4961C89.629 35.7499 89.3749 36.004 89.1211 36.2578C81.6054 36.4611 74.0899 36.4611 66.5742 36.2578C65.828 35.6902 65.5233 34.9285 65.6602 33.9727C65.5316 32.9727 65.8363 32.1604 66.5742 31.5352Z" fill="white"/>
<path opacity="0.979" fill-rule="evenodd" clip-rule="evenodd" d="M120.199 31.5352C127.716 31.4843 135.231 31.5352 142.746 31.6875C143 31.9413 143.254 32.1954 143.508 32.4492C143.711 33.4648 143.711 34.4806 143.508 35.4961C143.254 35.7499 143 36.004 142.746 36.2578C135.23 36.4611 127.715 36.4611 120.199 36.2578C119.453 35.6902 119.148 34.9285 119.285 33.9727C119.157 32.9727 119.461 32.1604 120.199 31.5352Z" fill="white"/>
<path opacity="0.945" fill-rule="evenodd" clip-rule="evenodd" d="M57.1289 34.8867C57.9476 34.8367 58.7602 34.8876 59.5664 35.0391C60.1249 35.1914 60.4805 35.547 60.6328 36.1055C60.8361 38.3397 60.8361 40.5743 60.6328 42.8086C60.4805 43.3671 60.1249 43.7226 59.5664 43.875C58.1307 44.3147 56.9629 43.9594 56.0625 42.8086C55.8593 40.5743 55.8593 38.3397 56.0625 36.1055C56.2727 35.5418 56.628 35.1353 57.1289 34.8867Z" fill="white"/>
<path opacity="0.979" fill-rule="evenodd" clip-rule="evenodd" d="M12.9492 41.2852C20.4655 41.2343 27.9812 41.2852 35.4961 41.4375C35.7499 41.6913 36.004 41.9454 36.2578 42.1992C36.461 43.2148 36.461 44.2306 36.2578 45.2461C36.004 45.4999 35.7499 45.754 35.4961 46.0078C27.9805 46.2111 20.4648 46.2111 12.9492 46.0078C12.203 45.4402 11.8983 44.6785 12.0352 43.7227C11.9064 42.7227 12.2111 41.9104 12.9492 41.2852Z" fill="white"/>
<path opacity="0.979" fill-rule="evenodd" clip-rule="evenodd" d="M66.5742 41.2852C74.0905 41.2343 81.6063 41.2852 89.1211 41.4375C89.3749 41.6913 89.629 41.9454 89.8828 42.1992C90.086 43.2148 90.086 44.2306 89.8828 45.2461C89.629 45.4999 89.3749 45.754 89.1211 46.0078C81.6054 46.2111 74.0899 46.2111 66.5742 46.0078C65.828 45.4402 65.5233 44.6785 65.6602 43.7227C65.5316 42.7227 65.8363 41.9104 66.5742 41.2852Z" fill="white"/>
<path opacity="0.979" fill-rule="evenodd" clip-rule="evenodd" d="M120.199 41.2852C127.716 41.2343 135.231 41.2852 142.746 41.4375C143 41.6913 143.254 41.9454 143.508 42.1992C143.711 43.2148 143.711 44.2306 143.508 45.2461C143.254 45.4999 143 45.754 142.746 46.0078C135.23 46.2111 127.715 46.2111 120.199 46.0078C119.453 45.4402 119.148 44.6785 119.285 43.7227C119.157 42.7227 119.461 41.9104 120.199 41.2852Z" fill="white"/>
<path opacity="0.947" fill-rule="evenodd" clip-rule="evenodd" d="M59.2617 90.6445C62.659 89.931 64.1316 91.2515 63.6797 94.6055C63.4259 94.8593 63.1718 95.1134 62.918 95.3672C58.3474 96.0025 53.7771 96.7133 49.207 97.5C46.8311 97.8897 44.5965 98.6514 42.5039 99.7852C44.1163 100.713 45.843 101.373 47.6836 101.766C57.6454 103.682 67.7001 104.646 77.8477 104.66C85.7994 104.549 93.7213 103.991 101.613 102.984C105.141 102.482 108.594 101.67 111.973 100.547C112.43 100.369 112.836 100.115 113.191 99.7852C110.504 98.4665 107.66 97.6033 104.66 97.1953C101.122 96.5738 97.567 96.0658 93.9961 95.6719C92.3435 95.0573 91.7847 93.8895 92.3203 92.168C92.6582 91.4626 93.217 91.0056 93.9961 90.7969C101.09 90.9157 107.997 92.1345 114.715 94.4531C116.572 95.1512 118.045 96.319 119.133 97.957C119.336 113.699 119.336 129.441 119.133 145.184C117.907 147.216 116.13 148.587 113.801 149.297C108.343 151.038 102.757 152.155 97.043 152.648C84.2452 153.658 71.4483 153.658 58.6524 152.648C55.9985 152.406 55.1354 151.035 56.0625 148.535C56.6323 147.768 57.394 147.362 58.3477 147.316C72.6762 148.849 86.9965 148.696 101.309 146.859C105.836 146.422 110.152 145.254 114.258 143.355C114.511 140.405 114.46 137.459 114.105 134.52C109.47 136.188 104.696 137.254 99.7852 137.719C85.1602 139.138 70.5352 139.138 55.9102 137.719C51.0157 137.181 46.2421 136.114 41.5899 134.52C41.2349 137.358 41.184 140.202 41.4375 143.051C42.0734 143.445 42.7337 143.801 43.418 144.117C45.6559 144.829 47.8902 145.54 50.1211 146.25C51.6845 148.659 51.0751 150.233 48.293 150.973C44.5974 150.333 41.1441 149.064 37.9336 147.164C37.2886 146.637 36.8316 145.976 36.5625 145.184C36.3593 129.441 36.3593 113.699 36.5625 97.957C37.2228 96.8906 38.086 96.0275 39.1524 95.3672C40.9125 94.4873 42.7407 93.7764 44.6367 93.2344C49.5023 92.0693 54.3773 91.2061 59.2617 90.6445ZM41.2852 105.27C45.3942 106.906 49.6598 107.972 54.082 108.469C69.9258 110.297 85.7695 110.297 101.613 108.469C105.99 107.997 110.205 106.93 114.258 105.27C114.511 108.22 114.46 111.166 114.105 114.105C111.305 115.564 108.359 116.63 105.27 117.305C104.199 118.609 104.097 119.98 104.965 121.418C105.585 121.879 106.296 122.082 107.098 122.027C109.497 121.819 111.783 121.21 113.953 120.199C114.207 123.15 114.156 126.095 113.801 129.035C110.827 130.516 107.679 131.481 104.355 131.93C98.8108 132.915 93.2249 133.524 87.5977 133.758C75.8675 134.312 64.1879 133.804 52.5586 132.234C48.6802 131.71 44.9731 130.643 41.4375 129.035C41.184 126.085 41.2349 123.139 41.5899 120.199C46.3354 121.842 51.2104 122.909 56.2149 123.398C69.7134 124.686 83.2211 124.787 96.7383 123.703C99.7142 123.374 100.628 121.851 99.4805 119.133C98.7895 118.66 98.0277 118.406 97.1953 118.371C83.0118 119.695 68.8439 119.543 54.6914 117.914C50.1239 117.458 45.7565 116.29 41.5899 114.41C41.2855 111.37 41.184 108.323 41.2852 105.27Z" fill="white"/>
</svg>
