<svg width="35" height="35" viewBox="0 0 35 35" fill="none" xmlns="http://www.w3.org/2000/svg">
<g clip-path="url(#clip0_17_27)">
<path d="M4.50488 0.102535C4.40234 0.157223 4.28613 0.300777 4.24512 0.416988C4.13574 0.724606 4.13574 34.2754 4.24512 34.583C4.40234 35.0342 3.4248 35 17.5 35C31.7187 35 30.6182 35.041 30.7617 34.5352C30.8164 34.3574 30.8301 30.2148 30.8164 20.4189L30.7959 6.5625L27.5146 3.28125L24.2334 -3.8147e-06H14.458C6.09766 0.00683212 4.65527 0.020504 4.50488 0.102535ZM23.4473 4.11523C23.4541 6.28222 23.4746 7.03418 23.5361 7.11621C23.7344 7.37597 23.8506 7.38281 26.7559 7.38281H29.5996V20.5762V33.7695H17.5H5.40039V17.5V1.23046H14.4238H23.4473V4.11523ZM28.7109 6.13183C28.7109 6.1455 27.8018 6.15234 26.6943 6.15234H24.6777V4.16308V2.17382L26.6943 4.14257C27.8018 5.22949 28.7109 6.11816 28.7109 6.13183Z" fill="white"/>
<path d="M17.3222 10.7598C15.6611 11.1357 14.1982 12.373 13.5693 13.9248L13.4053 14.3213L12.7217 14.3623C11.9902 14.4033 11.8125 14.4785 11.6826 14.8203C11.6074 15.0186 11.7578 15.4082 11.9492 15.5107C12.0312 15.5518 12.3252 15.5859 12.6054 15.5859H13.125V15.8389C13.125 15.9824 13.1455 16.2627 13.166 16.4541L13.2138 16.8164H12.6875C12.3594 16.8164 12.0859 16.8574 11.9697 16.9189C11.5459 17.1377 11.5664 17.7666 12.0039 17.9512C12.1474 18.0127 12.4824 18.0469 12.9131 18.0469H13.5898L13.665 18.2588C13.7949 18.6416 14.3486 19.3867 14.8271 19.8447C16.2148 21.1504 18.0674 21.6152 19.9199 21.1094C20.248 21.0205 20.5283 20.8975 20.624 20.8086C20.8428 20.5898 20.8359 20.2139 20.6103 19.9951C20.4121 19.79 20.1728 19.7764 19.6328 19.9404C19.1064 20.0977 17.8691 20.1045 17.3974 19.9473C16.3721 19.6123 15.6885 19.127 15.0732 18.2998L14.8887 18.0469H16.8437C19.0722 18.0469 19.209 18.0264 19.3457 17.6094C19.4072 17.418 19.4072 17.3291 19.332 17.1787C19.1679 16.8301 19.0791 16.8164 16.6728 16.8164H14.4443L14.3965 16.502C14.376 16.3242 14.3554 16.0508 14.3554 15.8867V15.5859H16.9189H19.4892L19.6533 15.415C19.8926 15.1826 19.8857 14.7793 19.6465 14.5537L19.4687 14.3896L17.083 14.3691L14.6904 14.3486L14.916 13.9316C15.039 13.6992 15.3262 13.3232 15.5586 13.0977C16.2627 12.4004 17.0146 12.0312 18.0195 11.8877C18.6006 11.8057 18.833 11.833 19.7012 12.0518L20.2959 12.1953L20.4873 12.0586C20.7265 11.874 20.8291 11.6143 20.7402 11.375C20.5898 10.9375 19.9267 10.7256 18.6279 10.6914C18.0332 10.6777 17.6025 10.6982 17.3222 10.7598Z" fill="white"/>
<path d="M8.66806 23.7959C8.56552 23.8369 8.44247 23.9668 8.38095 24.0967C8.27841 24.3018 8.27841 24.3564 8.36728 24.5684C8.42197 24.6982 8.52451 24.835 8.5997 24.876C8.80478 24.9853 17.1788 24.9785 17.3839 24.8691C17.7462 24.6777 17.8145 24.2676 17.5411 23.9463L17.377 23.7549L13.1114 23.7412C10.4454 23.7344 8.78427 23.7549 8.66806 23.7959Z" fill="white"/>
<path d="M8.59277 26.8721C8.51757 26.9131 8.42187 27.0498 8.36718 27.1797C8.2578 27.4395 8.31249 27.6445 8.54491 27.8564C8.6953 27.9932 8.79101 27.9932 17.1992 27.9932H25.7031L25.8877 27.8086C26.1475 27.5488 26.1406 27.1797 25.8809 26.9609L25.6963 26.7969H17.206C11.293 26.8037 8.6748 26.8242 8.59277 26.8721Z" fill="white"/>
<path d="M8.74998 29.8525C8.58592 29.9141 8.39451 30.0986 8.33299 30.2695C8.25779 30.4678 8.40818 30.8574 8.59959 30.96C8.70213 31.0146 11.2724 31.0352 17.206 31.0352C24.8554 31.0352 25.6894 31.0215 25.8262 30.9258C26.0586 30.7686 26.1338 30.5156 26.0381 30.2354C25.8877 29.7773 26.3799 29.8047 17.1787 29.8115C12.5986 29.8115 8.80467 29.832 8.74998 29.8525Z" fill="white"/>
</g>
<defs>
<clipPath id="clip0_17_27">
<rect width="35" height="35" fill="white"/>
</clipPath>
</defs>
</svg>
