<svg width="179" height="179" viewBox="0 0 179 179" fill="none" xmlns="http://www.w3.org/2000/svg">
<path opacity="0.943" fill-rule="evenodd" clip-rule="evenodd" d="M92.8213 14.8584C98.8978 15.2456 103.851 17.8094 107.68 22.5498C113.08 28.9123 115.178 36.2541 113.973 44.5752C112.994 51.9855 111.246 59.2109 108.728 66.251C108.315 67.5704 108.606 68.6776 109.603 69.5723C124.84 70.0348 140.106 70.268 155.401 70.2715C165.572 74.005 169.36 81.172 166.764 91.7725C165.921 93.8103 164.814 95.6748 163.442 97.3662C167.647 102.067 168.754 107.428 166.764 113.448C165.328 117.098 162.823 119.72 159.247 121.314C162.814 130.017 160.6 136.835 152.604 141.767C156.04 149.525 154.409 155.993 147.71 161.17C145.449 162.545 143.002 163.361 140.368 163.617C117.76 163.85 95.1521 163.85 72.5439 163.617C67.1215 163.235 62.3437 161.312 58.2099 157.849C55.7788 161.396 52.3991 163.319 48.0713 163.617C36.5342 163.85 24.997 163.85 13.4599 163.617C12.4131 163.475 11.6556 162.951 11.1875 162.044C11.1292 148.817 11.071 135.59 11.0127 122.363C10.9564 108.874 11.1312 95.4143 11.5371 81.9834C11.7994 81.7645 12.0908 81.5897 12.4111 81.459C25.1136 81.2258 37.8162 81.2258 50.5185 81.459C53.9115 82.2809 56.4752 84.2038 58.2099 87.2275C61.6407 84.0908 64.6123 80.5947 67.125 76.7393C71.6402 69.1073 75.6023 61.1827 79.0117 52.9658C81.8666 44.8825 82.5074 36.6083 80.9346 28.1436C81.6103 20.7116 85.5725 16.2832 92.8213 14.8584ZM91.7724 21.1514C95.2832 20.7096 98.3129 21.7001 100.862 24.123C106.643 29.4544 109.032 36.0388 108.029 43.876C107.049 51.0598 105.301 58.0519 102.785 64.8525C101.713 70.813 104.102 74.4839 109.952 75.8652C124.752 75.9817 139.553 76.0984 154.353 76.2148C159.06 77.7769 161.508 81.0402 161.694 86.0039C161.437 90.1859 159.515 93.3908 155.926 95.6182C155.227 96.7834 155.227 97.949 155.926 99.1143C158.174 100.663 159.922 102.644 161.17 105.058C162.61 111.662 159.988 115.567 153.304 116.77C151.736 117.51 151.095 118.734 151.381 120.44C152.567 121.978 153.616 123.61 154.527 125.335C155.615 132.062 152.76 135.966 145.962 137.047C144.641 138.08 144.234 139.42 144.738 141.067C145.962 142.58 147.01 144.212 147.885 145.962C149.062 151.438 147.023 155.226 141.767 157.324C118.705 157.901 95.6307 158.017 72.5439 157.674C67.2162 157.138 62.9625 154.749 59.7832 150.507C59.55 131.861 59.55 113.215 59.7832 94.5693C63.0461 91.0732 66.3093 87.5771 69.5722 84.0811C76.1498 73.7225 81.6271 62.7682 86.0039 51.2178C86.9713 47.8479 87.4957 44.4102 87.5771 40.9043C87.402 36.6433 87.1691 32.3895 86.8779 28.1436C87.3114 24.9223 88.9431 22.5915 91.7724 21.1514ZM16.6064 87.2275C27.5615 87.1692 38.5157 87.2275 49.4697 87.4023C51.509 88.0432 52.8494 89.3836 53.4902 91.4229C53.7234 112.05 53.7234 132.677 53.4902 153.304C52.6015 155.878 50.7954 157.334 48.0713 157.674C37.5837 157.849 27.0954 157.907 16.6064 157.849C16.6064 134.308 16.6064 110.768 16.6064 87.2275Z" fill="white"/>
<path opacity="0.93" fill-rule="evenodd" clip-rule="evenodd" d="M48.7705 15.208C50.2462 14.9659 51.5279 15.3155 52.6162 16.2568C53.4318 25.2302 58.3264 30.1247 67.2998 30.9404C68.6982 32.5719 68.6982 34.2034 67.2998 35.835C58.3264 36.6506 53.4318 41.5451 52.6162 50.5186C50.9846 51.917 49.3533 51.917 47.7217 50.5186C46.906 41.5451 42.0115 36.6506 33.0381 35.835C31.6396 34.2034 31.6396 32.5719 33.0381 30.9404C41.879 30.1987 46.7152 25.4207 47.5469 16.6064C47.9321 16.0999 48.3401 15.6337 48.7705 15.208ZM49.8193 28.4932C51.544 30.0997 53.292 31.7312 55.0635 33.3877C53.3154 34.9027 51.6838 36.5342 50.1689 38.2822C48.6541 36.5342 47.0225 34.9027 45.2744 33.3877C47.0343 31.9777 48.5492 30.3462 49.8193 28.4932Z" fill="white"/>
<path opacity="0.93" fill-rule="evenodd" clip-rule="evenodd" d="M143.864 15.208C145.34 14.9659 146.622 15.3155 147.71 16.2568C148.526 25.2302 153.42 30.1247 162.394 30.9404C163.792 32.5719 163.792 34.2034 162.394 35.835C153.42 36.6506 148.526 41.5451 147.71 50.5186C146.078 51.917 144.447 51.917 142.815 50.5186C142 41.5451 137.105 36.6506 128.132 35.835C126.733 34.2034 126.733 32.5719 128.132 30.9404C136.973 30.1987 141.809 25.4207 142.641 16.6064C143.026 16.0999 143.434 15.6337 143.864 15.208ZM144.913 28.4932C146.638 30.0997 148.386 31.7312 150.157 33.3877C148.409 34.9027 146.778 36.5342 145.263 38.2822C143.748 36.5342 142.116 34.9027 140.368 33.3877C142.128 31.9777 143.643 30.3462 144.913 28.4932Z" fill="white"/>
</svg>
