<svg width="37" height="37" viewBox="0 0 37 37" fill="none" xmlns="http://www.w3.org/2000/svg">
<path opacity="0.936" fill-rule="evenodd" clip-rule="evenodd" d="M2.6377 7.0459C11.7672 7.0459 20.8968 7.0459 30.0264 7.0459C30.0143 9.06948 30.0264 11.0929 30.0625 13.1162C32.2827 14.4237 33.427 16.3749 33.4951 18.9697C33.4979 20.2115 33.1847 21.3677 32.5557 22.4385C33.2447 22.7541 33.7867 23.2359 34.1816 23.8838C34.2974 24.9879 34.3215 26.096 34.2539 27.208C33.933 28.0107 33.367 28.5767 32.5557 28.9062C31.2104 29.4473 29.8132 29.7605 28.3643 29.8457C25.9372 30.0676 23.5766 29.7785 21.2822 28.9785C20.6956 28.7277 20.1778 28.3783 19.7285 27.9307C19.594 27.7581 19.4977 27.5654 19.4395 27.3525C19.4033 26.8714 19.3913 26.3896 19.4033 25.9072C14.5133 25.9072 9.6234 25.9072 4.7334 25.9072C4.7334 25.016 4.7334 24.1247 4.7334 23.2334C4.03483 23.2334 3.33627 23.2334 2.6377 23.2334C2.6377 17.8375 2.6377 12.4418 2.6377 7.0459ZM3.64941 8.05762C12.1045 8.05762 20.5596 8.05762 29.0146 8.05762C29.0146 9.5752 29.0146 11.0928 29.0146 12.6104C27.8953 12.3347 26.7631 12.2505 25.6182 12.3574C25.2207 12.1527 24.9196 11.8516 24.7148 11.4541C24.4911 10.895 24.3104 10.3289 24.1728 9.75586C23.2888 9.65035 22.3976 9.61422 21.499 9.64746C21.499 9.98472 21.499 10.3219 21.499 10.6592C22.1253 10.6592 22.7516 10.6592 23.3779 10.6592C23.4548 11.4754 23.7921 12.1619 24.3896 12.7188C23.3824 13.1311 22.5272 13.7454 21.8242 14.5615C21.4035 11.9707 19.922 10.3688 17.3799 9.75586C14.5548 9.40364 12.5194 10.4997 11.2734 13.0439C10.4177 15.535 10.9597 17.6669 12.8994 19.4395C15.3603 21.0948 17.7571 21.0105 20.0898 19.1865C20.1838 20.2488 20.4848 21.2485 20.9932 22.1855C15.212 22.2217 9.43074 22.2337 3.64941 22.2217C3.64941 17.5003 3.64941 12.7789 3.64941 8.05762ZM16.1514 10.6592C18.9547 10.861 20.4963 12.3545 20.7764 15.1396C20.5257 17.8233 19.0563 19.3167 16.3682 19.6201C13.6691 19.3299 12.1756 17.8365 11.8877 15.1396C12.016 13.1693 12.9796 11.7842 14.7783 10.9844C15.2359 10.833 15.6936 10.7246 16.1514 10.6592ZM26.124 13.333C29.26 13.2078 31.3196 14.629 32.3027 17.5967C32.8269 20.7522 31.6345 22.9804 28.7256 24.2812C25.8183 25.0789 23.5419 24.2238 21.8965 21.7158C20.6545 19.062 21.0761 16.7134 23.1611 14.6699C24.0427 13.9791 25.0303 13.5334 26.124 13.333ZM5.74512 23.2334C10.4665 23.2213 15.1879 23.2334 19.9092 23.2695C19.4587 23.7181 19.29 24.2601 19.4033 24.8955C14.8506 24.8955 10.2979 24.8955 5.74512 24.8955C5.74512 24.3414 5.74512 23.7875 5.74512 23.2334ZM21.5713 23.3779C21.6705 23.3666 21.7669 23.3787 21.8603 23.4141C23.8521 25.4719 26.2368 26.0982 29.0146 25.293C29.4996 25.1315 29.9573 24.9147 30.3877 24.6426C30.9483 24.2747 31.4663 23.8532 31.9414 23.3779C32.5314 23.5713 32.977 23.9326 33.2783 24.4619C33.0997 24.8693 32.8107 25.1705 32.4111 25.3652C31.078 25.9595 29.6809 26.2968 28.2197 26.377C26.2873 26.5281 24.3843 26.3595 22.5107 25.8711C21.7414 25.6734 21.0789 25.3001 20.5234 24.751C20.4294 24.6162 20.4053 24.4717 20.4512 24.3174C20.7371 23.8926 21.1104 23.5794 21.5713 23.3779ZM33.2061 26.0518C33.4475 26.7433 33.2548 27.2853 32.6279 27.6777C31.1739 28.4026 29.6323 28.788 28.0029 28.834C25.8505 29.0016 23.7548 28.7366 21.7158 28.0391C21.2584 27.8465 20.861 27.5695 20.5234 27.208C20.3989 26.8528 20.3869 26.4914 20.4873 26.124C21.9556 26.8902 23.5214 27.3118 25.1846 27.3887C27.2861 27.563 29.3576 27.3945 31.3994 26.8828C32.0574 26.7085 32.6596 26.4315 33.2061 26.0518Z" fill="#011638"/>
<path opacity="0.924" fill-rule="evenodd" clip-rule="evenodd" d="M8.63574 9.64746C9.5752 9.64746 10.5146 9.64746 11.4541 9.64746C11.4541 9.98472 11.4541 10.3219 11.4541 10.6592C10.7314 10.6592 10.0088 10.6592 9.28613 10.6592C8.99368 12.3008 8.03016 13.3125 6.39551 13.6943C6.3233 14.6567 6.29922 15.6202 6.32324 16.585C7.99923 16.8879 9.01095 17.8755 9.3584 19.5479C10.0553 19.62 10.7538 19.6441 11.4541 19.6201C11.4541 19.9574 11.4541 20.2946 11.4541 20.6318C10.4834 20.6653 9.51991 20.6292 8.56348 20.5234C8.50328 20.4632 8.44301 20.403 8.38281 20.3428C8.27037 18.6164 7.35498 17.677 5.63672 17.5244C5.50002 17.5044 5.40367 17.4321 5.34766 17.3076C5.29948 15.8382 5.29948 14.3688 5.34766 12.8994C5.41288 12.8126 5.49719 12.7524 5.60059 12.7188C6.81014 12.6862 7.66529 12.1201 8.16602 11.0205C8.24493 10.6366 8.3172 10.2511 8.38281 9.86426C8.46556 9.78216 8.54989 9.7099 8.63574 9.64746Z" fill="#011638"/>
<path opacity="0.848" fill-rule="evenodd" clip-rule="evenodd" d="M5.60088 10.0088C6.01616 9.96297 6.25704 10.1436 6.32354 10.5508C6.23725 10.9951 5.97228 11.1397 5.52862 10.9844C5.22989 10.6316 5.25398 10.3065 5.60088 10.0088Z" fill="#011638"/>
<path opacity="0.848" fill-rule="evenodd" clip-rule="evenodd" d="M26.4853 10.0088C27.0547 9.98827 27.2594 10.2533 27.0996 10.8037C26.9146 11.0096 26.6858 11.0699 26.413 10.9844C26.0219 10.6366 26.046 10.3114 26.4853 10.0088Z" fill="#011638"/>
<path opacity="0.938" fill-rule="evenodd" clip-rule="evenodd" d="M26.3408 15.1396C26.6781 15.1396 27.0153 15.1396 27.3525 15.1396C27.3525 15.4769 27.3525 15.8141 27.3525 16.1514C27.7621 16.1514 28.1715 16.1514 28.5811 16.1514C28.5811 16.6813 28.5811 17.2113 28.5811 17.7412C28.2197 17.7412 27.8584 17.7412 27.4971 17.7412C27.4971 17.5485 27.4971 17.3558 27.4971 17.1631C27.0635 17.1631 26.6299 17.1631 26.1963 17.1631C26.1963 17.5726 26.1963 17.9821 26.1963 18.3916C26.9912 18.3916 27.7861 18.3916 28.5811 18.3916C28.5811 19.5238 28.5811 20.6559 28.5811 21.7881C28.1715 21.7881 27.7621 21.7881 27.3525 21.7881C27.3525 22.1253 27.3525 22.4625 27.3525 22.7998C27.0153 22.7998 26.6781 22.7998 26.3408 22.7998C26.3408 22.4625 26.3408 22.1253 26.3408 21.7881C25.9554 21.7881 25.57 21.7881 25.1846 21.7881C25.1846 21.2822 25.1846 20.7764 25.1846 20.2705C25.5218 20.2705 25.859 20.2705 26.1963 20.2705C26.1963 20.4391 26.1963 20.6078 26.1963 20.7764C26.6299 20.7764 27.0635 20.7764 27.4971 20.7764C27.4971 20.3187 27.4971 19.861 27.4971 19.4033C26.7262 19.4033 25.9554 19.4033 25.1846 19.4033C25.1846 18.3193 25.1846 17.2354 25.1846 16.1514C25.57 16.1514 25.9554 16.1514 26.3408 16.1514C26.3408 15.8141 26.3408 15.4769 26.3408 15.1396Z" fill="#011638"/>
<path opacity="0.848" fill-rule="evenodd" clip-rule="evenodd" d="M5.60088 19.042C6.01616 18.9962 6.25704 19.1768 6.32354 19.584C6.23725 20.0283 5.97228 20.1729 5.52862 20.0176C5.22989 19.6649 5.25398 19.3397 5.60088 19.042Z" fill="#011638"/>
</svg>
