<svg width="32" height="32" viewBox="0 0 32 32" fill="none" xmlns="http://www.w3.org/2000/svg">
<path opacity="0.993" fill-rule="evenodd" clip-rule="evenodd" d="M13.9063 2.21876C16.1116 2.00788 17.6325 2.91413 18.4688 4.93751C18.5443 5.1719 18.5964 5.41148 18.625 5.65626C18.6667 12.5313 18.6667 19.4063 18.625 26.2813C18.2962 28.1518 17.2024 29.2872 15.3438 29.6875C14.6894 29.756 14.0436 29.7143 13.4063 29.5625C10.5856 28.7334 7.77306 27.8792 4.96875 27C3.59777 26.3321 2.81652 25.2383 2.625 23.7188C2.58333 18.5521 2.58333 13.3854 2.625 8.21876C2.81652 6.6992 3.59777 5.60542 4.96875 4.93751C7.95169 4.02025 10.9309 3.114 13.9063 2.21876ZM11.7813 14.6563C12.8906 14.7303 13.3593 15.3136 13.1875 16.4063C12.6771 17.3125 11.9792 17.4896 11.0938 16.9375C10.5563 16.3481 10.525 15.7335 11 15.0938C11.2337 14.8887 11.4941 14.7428 11.7813 14.6563Z" fill="white"/>
<path opacity="0.975" fill-rule="evenodd" clip-rule="evenodd" d="M20.9064 3.96875C22.6148 3.95834 24.3232 3.96875 26.0314 4C27.7435 4.3996 28.8164 5.45169 29.2501 7.15625C29.3464 7.94525 29.3672 8.73694 29.3126 9.53125C29.0252 10.5032 28.3898 10.847 27.4064 10.5625C26.9577 10.3636 26.6972 10.0198 26.6251 9.53125C26.6043 8.90625 26.5834 8.28125 26.5626 7.65625C26.4002 7.13962 26.0564 6.81675 25.5314 6.6875C24.0105 6.66669 22.4897 6.64581 20.9689 6.625C20.1378 6.34906 19.8149 5.77615 20.0001 4.90625C20.147 4.4365 20.4491 4.124 20.9064 3.96875Z" fill="white"/>
<path opacity="0.967" fill-rule="evenodd" clip-rule="evenodd" d="M24.9063 11.9688C25.42 11.8864 25.8783 12.001 26.2813 12.3125C27.1876 13.2188 28.0938 14.125 29.0001 15.0313C29.472 15.6935 29.4511 16.3393 28.9376 16.9688C27.9651 17.9831 26.9546 18.9518 25.9063 19.875C24.4168 20.1355 23.8021 19.5208 24.0626 18.0313C24.2022 17.7839 24.3793 17.5651 24.5938 17.375C23.4063 17.3542 22.2188 17.3333 21.0313 17.3125C20.1654 17.0293 19.8216 16.4356 20.0001 15.5313C20.189 15.0505 20.5328 14.7485 21.0313 14.625C22.2188 14.6042 23.4063 14.5833 24.5938 14.5625C23.8998 13.9371 23.7853 13.2183 24.2501 12.4063C24.4472 12.218 24.666 12.0722 24.9063 11.9688Z" fill="white"/>
<path opacity="0.975" fill-rule="evenodd" clip-rule="evenodd" d="M27.5938 21.2812C28.4926 21.171 29.0655 21.546 29.3126 22.4062C29.3982 23.3761 29.3357 24.3345 29.1251 25.2812C28.5741 26.7282 27.5428 27.6136 26.0313 27.9375C24.323 27.9792 22.6146 27.9792 20.9063 27.9375C20.1223 27.6301 19.8201 27.0572 20.0001 26.2187C20.1255 25.8113 20.3858 25.5301 20.7813 25.375C22.3608 25.2933 23.9441 25.2517 25.5313 25.25C26.0564 25.1207 26.4001 24.7978 26.5626 24.2812C26.5682 23.5693 26.6099 22.861 26.6876 22.1562C26.861 21.7223 27.163 21.4306 27.5938 21.2812Z" fill="white"/>
</svg>
