<svg width="27" height="27" viewBox="0 0 27 27" fill="none" xmlns="http://www.w3.org/2000/svg">
<g clip-path="url(#clip0_16_1943)">
<path opacity="0.965" fill-rule="evenodd" clip-rule="evenodd" d="M26.9736 3.71777C26.9736 3.92871 26.9736 4.13965 26.9736 4.35058C26.828 4.66249 26.5819 4.84706 26.2354 4.9043C21.4717 4.93066 16.708 4.93945 11.9443 4.93066C11.5563 6.24143 10.695 7.05881 9.36035 7.38281C7.39341 7.62154 6.05749 6.82172 5.35254 4.9834C3.80596 4.93946 2.25909 4.91309 0.711914 4.9043C0.36533 4.84706 0.119237 4.66249 -0.0263672 4.35058C-0.0263672 4.13965 -0.0263672 3.92871 -0.0263672 3.71777C0.103047 3.47426 0.296407 3.28969 0.553711 3.16406C2.15361 3.15527 3.75322 3.1289 5.35254 3.08496C6.00855 1.29697 7.29174 0.479586 9.20215 0.632811C10.4666 0.877916 11.3542 1.58983 11.8652 2.76855C11.9168 2.88668 11.9431 3.00972 11.9443 3.13769C16.7608 3.1289 21.5772 3.13769 26.3936 3.16406C26.6508 3.28969 26.8442 3.47426 26.9736 3.71777ZM8.25293 2.39941C9.31938 2.28622 9.99612 2.74325 10.2832 3.77051C10.2917 5.02762 9.66769 5.65165 8.41113 5.64258C7.55968 5.42405 7.08507 4.87913 6.9873 4.00781C7.07621 3.20435 7.49809 2.66822 8.25293 2.39941Z" fill="white"/>
<path opacity="0.965" fill-rule="evenodd" clip-rule="evenodd" d="M26.9736 13.1572C26.9736 13.3682 26.9736 13.5791 26.9736 13.79C26.8382 14.0571 26.6273 14.2417 26.3408 14.3438C24.337 14.3701 22.3331 14.3789 20.3291 14.3701C19.8346 15.972 18.7447 16.8158 17.0596 16.9014C15.395 16.8184 14.2875 15.9923 13.7373 14.4229C9.36046 14.3789 4.9835 14.3526 0.606445 14.3438C0.319982 14.2417 0.109044 14.0571 -0.0263672 13.79C-0.0263672 13.5791 -0.0263672 13.3682 -0.0263672 13.1572C0.109044 12.8902 0.319982 12.7056 0.606445 12.6035C4.9835 12.5947 9.36046 12.5683 13.7373 12.5244C14.4535 10.6585 15.8071 9.85869 17.7979 10.125C18.9537 10.4195 19.7711 11.1138 20.25 12.208C20.3015 12.3261 20.3279 12.4492 20.3291 12.5772C22.3331 12.5683 24.337 12.5772 26.3408 12.6035C26.6273 12.7056 26.8382 12.8902 26.9736 13.1572ZM16.6904 11.8389C17.7392 11.743 18.3984 12.2 18.668 13.21C18.7272 14.1726 18.2966 14.7966 17.376 15.082C16.4015 15.1796 15.7599 14.7665 15.4512 13.8428C15.3188 12.8262 15.7318 12.1582 16.6904 11.8389Z" fill="white"/>
<path opacity="0.965" fill-rule="evenodd" clip-rule="evenodd" d="M26.9736 22.5967C26.9736 22.8076 26.9736 23.0186 26.9736 23.2295C26.8442 23.473 26.6508 23.6576 26.3936 23.7832C21.5772 23.8096 16.7608 23.8184 11.9443 23.8096C11.648 24.955 10.9449 25.7372 9.83496 26.1562C8.14293 26.6352 6.78064 26.1694 5.74805 24.7588C5.58694 24.4718 5.45511 24.173 5.35254 23.8623C3.75322 23.8184 2.15361 23.792 0.553711 23.7832C0.296407 23.6576 0.103047 23.473 -0.0263672 23.2295C-0.0263672 23.0186 -0.0263672 22.8076 -0.0263672 22.5967C0.119237 22.2848 0.36533 22.1002 0.711914 22.043C2.25909 22.0342 3.80596 22.0078 5.35254 21.9639C6.05765 20.1254 7.39357 19.3257 9.36035 19.5645C10.695 19.8885 11.5563 20.7058 11.9443 22.0166C16.708 22.0078 21.4717 22.0166 26.2354 22.043C26.5819 22.1002 26.828 22.2848 26.9736 22.5967ZM8.41113 21.2783C9.66632 21.2942 10.2903 21.927 10.2832 23.1768C9.99701 24.2121 9.32027 24.6603 8.25293 24.5215C7.49218 24.2658 7.07031 23.7384 6.9873 22.9395C7.09515 22.0673 7.56976 21.5136 8.41113 21.2783Z" fill="white"/>
</g>
<defs>
<clipPath id="clip0_16_1943">
<rect width="27" height="27" fill="white"/>
</clipPath>
</defs>
</svg>
