<svg width="27" height="27" viewBox="0 0 27 27" fill="none" xmlns="http://www.w3.org/2000/svg">
<g clip-path="url(#clip0_16_1930)">
<path opacity="0.984" fill-rule="evenodd" clip-rule="evenodd" d="M6.30176 2.08301C8.24629 2.02179 9.62619 2.86554 10.4414 4.61426C10.6606 5.18143 10.7309 5.76149 10.6523 6.35449C9.67644 7.1453 9.0788 8.16481 8.85938 9.41308C7.69679 10.1223 6.47515 10.2366 5.19434 9.75586C3.19063 8.74526 2.42598 7.13686 2.90039 4.93066C3.48377 3.31719 4.61756 2.36797 6.30176 2.08301Z" fill="white"/>
<path opacity="0.983" fill-rule="evenodd" clip-rule="evenodd" d="M19.8018 2.08301C21.7463 2.02179 23.1262 2.86554 23.9414 4.61426C24.5151 6.38919 24.1195 7.90968 22.7549 9.17578C21.4684 10.1254 20.0797 10.3012 18.5889 9.70312C18.3305 8.1271 17.5395 6.8966 16.2158 6.01172C16.4328 3.79999 17.6281 2.49042 19.8018 2.08301Z" fill="white"/>
<path opacity="0.984" fill-rule="evenodd" clip-rule="evenodd" d="M13.0518 6.19629C14.7264 6.04526 16.0536 6.6429 17.0332 7.98926C17.7165 9.18491 17.822 10.433 17.3496 11.7334C16.3589 13.6305 14.8033 14.3952 12.6826 14.0273C10.8148 13.4247 9.81287 12.1415 9.67676 10.1777C9.84888 8.02902 10.9739 6.70185 13.0518 6.19629Z" fill="white"/>
<path opacity="0.987" fill-rule="evenodd" clip-rule="evenodd" d="M-0.0263672 19.5908C-0.0263672 17.9561 -0.0263672 16.3213 -0.0263672 14.6865C0.449866 12.2855 1.89127 10.8353 4.29785 10.3359C5.10518 10.2799 5.91379 10.2536 6.72363 10.2568C7.41197 10.25 8.09752 10.2764 8.78027 10.3359C8.86918 11.6473 9.37891 12.7635 10.3096 13.6846C8.07073 14.4732 6.67327 16.02 6.11719 18.3252C6.02559 19.1311 5.9641 19.9397 5.93262 20.751C3.90422 20.5809 1.91789 20.1941 -0.0263672 19.5908Z" fill="white"/>
<path opacity="0.986" fill-rule="evenodd" clip-rule="evenodd" d="M26.9736 14.6865C26.9736 16.3037 26.9736 17.9209 26.9736 19.5381C25.1758 20.3125 23.2949 20.7169 21.3311 20.751C21.6166 18.3451 20.8607 16.35 19.0635 14.7656C18.4493 14.3091 17.7814 13.9487 17.0596 13.6846C17.9984 12.7382 18.4906 11.5956 18.5361 10.2568C19.9085 10.2363 21.2796 10.2626 22.6494 10.3359C25.056 10.8353 26.4974 12.2855 26.9736 14.6865Z" fill="white"/>
<path opacity="0.99" fill-rule="evenodd" clip-rule="evenodd" d="M11.4171 14.3701C12.929 14.3613 14.4406 14.3701 15.9523 14.3965C17.8547 14.682 19.217 15.6927 20.0392 17.4287C20.1772 17.77 20.2827 18.1215 20.3556 18.4834C20.4144 19.3958 20.4408 20.3098 20.4347 21.2256C20.4345 22.0292 20.4169 22.829 20.382 23.625C18.904 24.2793 17.3572 24.666 15.7413 24.7852C12.7295 24.9997 9.79395 24.6218 6.93469 23.6514C6.87315 22.1751 6.8644 20.6986 6.90832 19.2217C7.22072 16.4925 8.72365 14.8753 11.4171 14.3701Z" fill="white"/>
</g>
<defs>
<clipPath id="clip0_16_1930">
<rect width="27" height="27" fill="white"/>
</clipPath>
</defs>
</svg>
